<svg width="66" height="66" viewBox="0 0 66 66" fill="none" xmlns="http://www.w3.org/2000/svg">
<g filter="url(#filter0_iii_2_95)">
<circle cx="33" cy="33" r="30" fill="#223249" fill-opacity="0.2"/>
</g>
<g style="mix-blend-mode:screen">
<circle cx="33" cy="33" r="29.5" stroke="url(#paint0_linear_2_95)"/>
</g>
<g style="mix-blend-mode:screen" filter="url(#filter1_f_2_95)">
<circle cx="33" cy="33" r="29.5" stroke="url(#paint1_linear_2_95)"/>
</g>
<path d="M45.9823 25.1186C45.2473 26.2136 44.3173 27.1886 43.2373 27.9686C43.2523 28.1936 43.2523 28.4336 43.2523 28.6736C43.2523 35.9486 37.7173 44.3336 27.6073 44.3336C24.5023 44.3336 21.6073 43.4186 19.1623 41.8586C19.5973 41.9036 20.0323 41.9336 20.4823 41.9336C23.0623 41.9336 25.4323 41.0486 27.3073 39.5786C26.1603 39.5549 25.0493 39.1735 24.1296 38.4877C23.2099 37.802 22.5273 36.8461 22.1773 35.7536C22.5073 35.8136 22.8523 35.8586 23.2123 35.8586C23.7073 35.8586 24.2023 35.7836 24.6523 35.6636C23.4082 35.4082 22.2902 34.7316 21.4868 33.7479C20.6835 32.7642 20.2439 31.5336 20.2423 30.2636V30.2036C20.9923 30.6086 21.8323 30.8636 22.7323 30.8936C21.979 30.3883 21.3618 29.7051 20.9353 28.9046C20.5089 28.104 20.2863 27.2106 20.2873 26.3036C20.2873 25.2986 20.5573 24.3536 21.0373 23.5436C23.7523 26.8736 27.8023 29.0636 32.3773 29.2886C32.2873 28.8836 32.2273 28.4636 32.2273 28.0286C32.2312 26.5712 32.813 25.1748 33.8449 24.1456C34.8769 23.1165 36.2748 22.5386 37.7323 22.5386C39.3223 22.5386 40.7473 23.1986 41.7523 24.2786C42.9973 24.0236 44.1823 23.5736 45.2473 22.9436C44.8273 24.2186 43.9573 25.2986 42.8173 25.9736C43.9102 25.8541 44.9779 25.5657 45.9823 25.1186Z" fill="#B3BAC7"/>
<defs>
<filter id="filter0_iii_2_95" x="-1" y="3" width="104" height="90" filterUnits="userSpaceOnUse" color-interpolation-filters="sRGB">
<feFlood flood-opacity="0" result="BackgroundImageFix"/>
<feBlend mode="normal" in="SourceGraphic" in2="BackgroundImageFix" result="shape"/>
<feColorMatrix in="SourceAlpha" type="matrix" values="0 0 0 0 0 0 0 0 0 0 0 0 0 0 0 0 0 0 127 0" result="hardAlpha"/>
<feOffset dx="40" dy="30"/>
<feGaussianBlur stdDeviation="25"/>
<feComposite in2="hardAlpha" operator="arithmetic" k2="-1" k3="1"/>
<feColorMatrix type="matrix" values="0 0 0 0 0.0301389 0 0 0 0 0.160183 0 0 0 0 0.233333 0 0 0 1 0"/>
<feBlend mode="normal" in2="shape" result="effect1_innerShadow_2_95"/>
<feColorMatrix in="SourceAlpha" type="matrix" values="0 0 0 0 0 0 0 0 0 0 0 0 0 0 0 0 0 0 127 0" result="hardAlpha"/>
<feOffset dy="2"/>
<feGaussianBlur stdDeviation="4.5"/>
<feComposite in2="hardAlpha" operator="arithmetic" k2="-1" k3="1"/>
<feColorMatrix type="matrix" values="0 0 0 0 0.27099 0 0 0 0 0.376354 0 0 0 0 0.5375 0 0 0 1 0"/>
<feBlend mode="normal" in2="effect1_innerShadow_2_95" result="effect2_innerShadow_2_95"/>
<feColorMatrix in="SourceAlpha" type="matrix" values="0 0 0 0 0 0 0 0 0 0 0 0 0 0 0 0 0 0 127 0" result="hardAlpha"/>
<feOffset dx="-4"/>
<feGaussianBlur stdDeviation="5"/>
<feComposite in2="hardAlpha" operator="arithmetic" k2="-1" k3="1"/>
<feColorMatrix type="matrix" values="0 0 0 0 0.0936458 0 0 0 0 0.297975 0 0 0 0 0.3625 0 0 0 0.8 0"/>
<feBlend mode="normal" in2="effect2_innerShadow_2_95" result="effect3_innerShadow_2_95"/>
</filter>
<filter id="filter1_f_2_95" x="0" y="0" width="66" height="66" filterUnits="userSpaceOnUse" color-interpolation-filters="sRGB">
<feFlood flood-opacity="0" result="BackgroundImageFix"/>
<feBlend mode="normal" in="SourceGraphic" in2="BackgroundImageFix" result="shape"/>
<feGaussianBlur stdDeviation="1.5" result="effect1_foregroundBlur_2_95"/>
</filter>
<linearGradient id="paint0_linear_2_95" x1="42" y1="3" x2="27.8571" y2="45.8571" gradientUnits="userSpaceOnUse">
<stop stop-color="#38FFDB"/>
<stop offset="1" stop-color="#38FFDB" stop-opacity="0"/>
</linearGradient>
<linearGradient id="paint1_linear_2_95" x1="42" y1="3" x2="27.8571" y2="45.8571" gradientUnits="userSpaceOnUse">
<stop stop-color="#38FFDB"/>
<stop offset="1" stop-color="#38FFDB" stop-opacity="0"/>
</linearGradient>
</defs>
</svg>
