<svg width="1600" height="967" viewBox="0 0 1600 967" fill="none" xmlns="http://www.w3.org/2000/svg">
<g clip-path="url(#clip0_194_51)">
<circle cx="813.5" cy="722.5" r="856.5" fill="url(#paint0_radial_194_51)" fill-opacity="0.5"/>
<circle cx="813.5" cy="722.5" r="856.5" fill="url(#paint1_radial_194_51)" fill-opacity="0.5"/>
<g opacity="0.12">
<path d="M757.713 98C757.713 98 848.957 158.457 1039.56 231.214C1382.95 362.406 1237.96 942.183 573.306 756.75C230.575 661.101 267.523 382.05 473.788 274.229C531.405 244.117 757.713 98 757.713 98Z" stroke="url(#paint2_linear_194_51)" stroke-width="3" stroke-miterlimit="10"/>
<path opacity="0.98" d="M764.13 108.801C764.13 108.801 863.228 156.183 1050.97 231.078C1385.36 364.472 1234.66 930.046 580.513 748.873C242.703 655.344 273.757 380.516 475.192 273.308C535.168 241.374 764.13 108.801 764.13 108.801Z" stroke="url(#paint3_linear_194_51)" stroke-width="3" stroke-miterlimit="10"/>
<path opacity="0.95" d="M770.876 119.972C770.876 119.972 877.797 154.297 1062.71 231.313C1388.11 366.837 1231.67 918.288 588.028 741.356C255.159 649.921 280.246 379.208 476.884 272.767C539.269 238.992 770.876 119.972 770.876 119.972Z" stroke="url(#paint4_linear_194_51)" stroke-width="3" stroke-miterlimit="10"/>
<path opacity="0.93" d="M777.91 131.486C777.91 131.486 892.632 152.709 1074.73 231.881C1391.15 369.453 1228.98 906.838 595.892 734.182C267.893 644.85 286.941 378.107 478.873 272.55C543.646 236.935 777.91 131.486 777.91 131.486Z" stroke="url(#paint5_linear_194_51)" stroke-width="3" stroke-miterlimit="10"/>
<path opacity="0.9" d="M785.168 143.289C785.168 143.289 907.703 151.41 1086.99 232.757C1394.42 372.287 1226.51 895.73 603.94 727.306C280.862 640.04 293.79 377.195 481.098 272.64C548.239 235.157 785.168 143.289 785.168 143.289Z" stroke="url(#paint6_linear_194_51)" stroke-width="3" stroke-miterlimit="10"/>
<path opacity="0.88" d="M792.601 155.389C792.601 155.389 922.948 150.309 1099.42 233.894C1397.89 375.319 1224.21 884.893 612.172 720.728C293.995 635.547 300.761 376.51 483.497 273.019C552.996 233.659 792.601 155.389 792.601 155.389Z" stroke="url(#paint7_linear_194_51)" stroke-width="3" stroke-miterlimit="10"/>
<path opacity="0.85" d="M800.187 168.473C800.187 168.473 938.305 150.183 1111.97 236.068C1401.5 379.253 1222.04 875.039 620.528 715.125C307.261 632.037 307.835 376.699 486.008 274.382C557.876 233.127 800.187 168.473 800.187 168.473Z" stroke="url(#paint8_linear_194_51)" stroke-width="3" stroke-miterlimit="10"/>
<path opacity="0.83" d="M807.774 182.893C807.774 182.893 953.756 151.311 1124.57 239.542C1405.2 384.432 1219.93 866.521 628.976 710.866C320.589 629.853 314.837 378.152 488.602 277.08C562.808 233.912 807.774 182.893 807.774 182.893Z" stroke="url(#paint9_linear_194_51)" stroke-width="3" stroke-miterlimit="10"/>
<path opacity="0.81" d="M815.412 198.332C815.412 198.332 969.195 153.476 1137.22 244.054C1408.95 390.532 1217.84 859.031 637.383 707.617C333.937 628.752 321.86 380.606 491.196 280.807C567.749 235.707 815.412 198.332 815.412 198.332Z" stroke="url(#paint10_linear_194_51)" stroke-width="3" stroke-miterlimit="10"/>
<path opacity="0.78" d="M823.009 214.574C823.009 214.574 984.666 156.319 1149.79 249.306C1412.67 397.291 1215.68 852.282 645.748 705.127C347.245 628.301 328.801 383.674 493.759 285.273C572.64 238.234 823.009 214.574 823.009 214.574Z" stroke="url(#paint11_linear_194_51)" stroke-width="3" stroke-miterlimit="10"/>
<path opacity="0.76" d="M830.514 231.259C830.514 231.259 1000.03 159.639 1162.32 255.099C1416.4 404.546 1213.5 846.074 654.083 703.169C360.46 628.436 335.608 387.257 496.199 290.281C577.417 241.266 830.514 231.259 830.514 231.259Z" stroke="url(#paint12_linear_194_51)" stroke-width="3" stroke-miterlimit="10"/>
<path opacity="0.73" d="M837.885 248.358C837.885 248.358 1015.25 163.294 1174.68 261.262C1420.01 412.053 1211.13 840.244 662.244 701.608C373.531 628.969 342.242 391.2 498.567 295.695C582.041 244.668 837.885 248.358 837.885 248.358Z" stroke="url(#paint13_linear_194_51)" stroke-width="3" stroke-miterlimit="10"/>
<path opacity="0.71" d="M845.052 265.719C845.052 265.719 1030.38 167.147 1186.84 267.687C1423.52 419.723 1208.57 834.668 670.21 700.263C386.408 629.7 348.639 395.27 500.7 301.308C586.45 248.295 845.052 265.719 845.052 265.719Z" stroke="url(#paint14_linear_194_51)" stroke-width="3" stroke-miterlimit="10"/>
<path opacity="0.69" d="M851.961 283.243C851.961 283.243 1045.22 171.117 1198.75 274.274C1426.74 427.483 1205.75 829.218 677.94 699.099C399.08 630.629 354.78 399.519 502.627 307.11C590.591 252.067 851.961 283.243 851.961 283.243Z" stroke="url(#paint15_linear_194_51)" stroke-width="3" stroke-miterlimit="10"/>
<path opacity="0.66" d="M858.625 300.848C858.625 300.848 1059.88 175.115 1210.37 280.942C1429.77 435.244 1202.65 823.921 685.332 698.025C411.352 631.64 360.542 403.86 504.155 312.993C594.405 255.893 858.625 300.848 858.625 300.848Z" stroke="url(#paint16_linear_194_51)" stroke-width="3" stroke-miterlimit="10"/>
<path opacity="0.64" d="M864.838 318.471C864.838 318.471 1074.19 179.076 1221.61 287.665C1432.53 442.932 1199.17 818.615 692.385 696.97C423.316 632.668 365.945 408.137 505.375 318.886C597.85 259.692 864.838 318.471 864.838 318.471Z" stroke="url(#paint17_linear_194_51)" stroke-width="3" stroke-miterlimit="10"/>
<path opacity="0.61" d="M870.682 336.057C870.682 336.057 1088.15 182.929 1232.46 294.279C1434.95 450.511 1195.3 813.264 699.029 695.869C434.87 633.661 370.958 412.351 506.185 324.76C600.854 263.464 870.682 336.057 870.682 336.057Z" stroke="url(#paint18_linear_194_51)" stroke-width="3" stroke-miterlimit="10"/>
<path opacity="0.59" d="M876.054 353.536C876.054 353.536 1101.71 186.602 1242.83 300.812C1436.98 457.911 1190.93 807.805 705.191 694.66C445.963 634.545 375.387 416.448 506.533 330.526C603.345 267.091 876.054 353.536 876.054 353.536Z" stroke="url(#paint19_linear_194_51)" stroke-width="3" stroke-miterlimit="10"/>
<path opacity="0.57" d="M880.944 370.879C880.944 370.879 1114.85 190.148 1252.71 307.227C1438.63 465.138 1186.07 802.21 710.88 693.324C456.544 635.294 379.324 420.373 506.369 336.148C605.334 270.52 880.944 370.879 880.944 370.879Z" stroke="url(#paint20_linear_194_51)" stroke-width="3" stroke-miterlimit="10"/>
<path opacity="0.54" d="M885.281 388.024C885.281 388.024 1127.54 193.405 1262.05 313.436C1439.84 472.068 1180.71 796.417 716.017 691.781C466.591 635.835 382.717 424.081 505.682 341.571C606.708 273.75 885.281 388.024 885.281 388.024Z" stroke="url(#paint21_linear_194_51)" stroke-width="3" stroke-miterlimit="10"/>
<path opacity="0.52" d="M888.931 404.97C888.931 404.97 1139.62 196.374 1270.69 319.391C1440.45 478.728 1174.63 790.417 720.456 689.994C475.941 636.142 385.383 427.528 504.288 346.75C607.446 276.683 888.931 404.97 888.931 404.97Z" stroke="url(#paint22_linear_194_51)" stroke-width="3" stroke-miterlimit="10"/>
<path opacity="0.49" d="M891.935 421.537C891.935 421.537 1151.16 199 1278.7 325.076C1440.54 485.053 1167.9 784.064 724.321 687.928C484.665 636.16 387.403 430.669 502.258 351.641C607.446 279.291 891.935 421.537 891.935 421.537Z" stroke="url(#paint23_linear_194_51)" stroke-width="3" stroke-miterlimit="10"/>
<path opacity="0.47" d="M894.221 437.824C894.221 437.824 1162.09 201.256 1285.98 330.418C1440.02 491.018 1160.47 777.405 727.397 685.528C492.621 635.854 388.664 433.466 499.511 356.243C606.656 281.529 894.221 437.824 894.221 437.824Z" stroke="url(#paint24_linear_194_51)" stroke-width="3" stroke-miterlimit="10"/>
<path opacity="0.44" d="M895.738 453.697C895.738 453.697 1172.34 203.097 1292.49 335.39C1438.9 496.594 1152.25 770.421 729.663 682.758C499.88 635.168 389.135 435.875 495.984 360.394C605.067 283.333 895.738 453.697 895.738 453.697Z" stroke="url(#paint25_linear_194_51)" stroke-width="3" stroke-miterlimit="10"/>
<path opacity="0.42" d="M896.425 469.235C896.425 469.235 1181.95 204.486 1298.17 340.001C1436.97 501.792 1143.21 762.985 731.149 679.608C506.277 634.067 388.766 437.869 491.596 364.175C602.596 284.687 896.425 469.235 896.425 469.235Z" stroke="url(#paint26_linear_194_51)" stroke-width="3" stroke-miterlimit="10"/>
</g>
</g>
<defs>
<radialGradient id="paint0_radial_194_51" cx="0" cy="0" r="1" gradientUnits="userSpaceOnUse" gradientTransform="translate(587.668 723.093) rotate(180) scale(630.668 746.587)">
<stop stop-color="#02F0FF" stop-opacity="0.35"/>
<stop offset="0.9387" stop-color="#05ECFB" stop-opacity="0"/>
</radialGradient>
<radialGradient id="paint1_radial_194_51" cx="0" cy="0" r="1" gradientUnits="userSpaceOnUse" gradientTransform="translate(984.8 723.093) scale(685.2 823.911)">
<stop offset="0.00025392" stop-color="#D600F9" stop-opacity="0.35"/>
<stop offset="0.945784" stop-color="#D600F9" stop-opacity="0"/>
</radialGradient>
<linearGradient id="paint2_linear_194_51" x1="315.463" y1="445.332" x2="1220.85" y2="445.332" gradientUnits="userSpaceOnUse">
<stop stop-color="#53C2E4"/>
<stop offset="0.41" stop-color="#884F9A"/>
<stop offset="0.86" stop-color="#7974B5"/>
<stop offset="1" stop-color="white"/>
</linearGradient>
<linearGradient id="paint3_linear_194_51" x1="323.131" y1="446.451" x2="1224.64" y2="446.451" gradientUnits="userSpaceOnUse">
<stop stop-color="#53C2E4"/>
<stop offset="0.41" stop-color="#884F9A"/>
<stop offset="0.86" stop-color="#7974B5"/>
<stop offset="1" stop-color="white"/>
</linearGradient>
<linearGradient id="paint4_linear_194_51" x1="331.026" y1="447.922" x2="1228.85" y2="447.922" gradientUnits="userSpaceOnUse">
<stop stop-color="#53C2E4"/>
<stop offset="0.41" stop-color="#884F9A"/>
<stop offset="0.86" stop-color="#7974B5"/>
<stop offset="1" stop-color="white"/>
</linearGradient>
<linearGradient id="paint5_linear_194_51" x1="339.125" y1="449.717" x2="1233.45" y2="449.717" gradientUnits="userSpaceOnUse">
<stop stop-color="#53C2E4"/>
<stop offset="0.41" stop-color="#884F9A"/>
<stop offset="0.86" stop-color="#7974B5"/>
<stop offset="1" stop-color="white"/>
</linearGradient>
<linearGradient id="paint6_linear_194_51" x1="347.337" y1="451.802" x2="1238.36" y2="451.802" gradientUnits="userSpaceOnUse">
<stop stop-color="#53C2E4"/>
<stop offset="0.41" stop-color="#884F9A"/>
<stop offset="0.86" stop-color="#7974B5"/>
<stop offset="1" stop-color="white"/>
</linearGradient>
<linearGradient id="paint7_linear_194_51" x1="355.641" y1="454.139" x2="1243.55" y2="454.139" gradientUnits="userSpaceOnUse">
<stop stop-color="#53C2E4"/>
<stop offset="0.41" stop-color="#884F9A"/>
<stop offset="0.86" stop-color="#7974B5"/>
<stop offset="1" stop-color="white"/>
</linearGradient>
<linearGradient id="paint8_linear_194_51" x1="363.956" y1="456.683" x2="1248.98" y2="456.683" gradientUnits="userSpaceOnUse">
<stop stop-color="#53C2E4"/>
<stop offset="0.41" stop-color="#884F9A"/>
<stop offset="0.86" stop-color="#7974B5"/>
<stop offset="1" stop-color="white"/>
</linearGradient>
<linearGradient id="paint9_linear_194_51" x1="372.24" y1="459.417" x2="1254.59" y2="459.417" gradientUnits="userSpaceOnUse">
<stop stop-color="#53C2E4"/>
<stop offset="0.41" stop-color="#884F9A"/>
<stop offset="0.86" stop-color="#7974B5"/>
<stop offset="1" stop-color="white"/>
</linearGradient>
<linearGradient id="paint10_linear_194_51" x1="380.431" y1="462.296" x2="1260.34" y2="462.296" gradientUnits="userSpaceOnUse">
<stop stop-color="#53C2E4"/>
<stop offset="0.41" stop-color="#884F9A"/>
<stop offset="0.86" stop-color="#7974B5"/>
<stop offset="1" stop-color="white"/>
</linearGradient>
<linearGradient id="paint11_linear_194_51" x1="388.469" y1="465.292" x2="1266.18" y2="465.292" gradientUnits="userSpaceOnUse">
<stop stop-color="#53C2E4"/>
<stop offset="0.41" stop-color="#884F9A"/>
<stop offset="0.86" stop-color="#7974B5"/>
<stop offset="1" stop-color="white"/>
</linearGradient>
<linearGradient id="paint12_linear_194_51" x1="396.302" y1="468.36" x2="1272.08" y2="468.36" gradientUnits="userSpaceOnUse">
<stop stop-color="#53C2E4"/>
<stop offset="0.41" stop-color="#884F9A"/>
<stop offset="0.86" stop-color="#7974B5"/>
<stop offset="1" stop-color="white"/>
</linearGradient>
<linearGradient id="paint13_linear_194_51" x1="403.878" y1="471.464" x2="1277.97" y2="471.464" gradientUnits="userSpaceOnUse">
<stop stop-color="#53C2E4"/>
<stop offset="0.41" stop-color="#884F9A"/>
<stop offset="0.86" stop-color="#7974B5"/>
<stop offset="1" stop-color="white"/>
</linearGradient>
<linearGradient id="paint14_linear_194_51" x1="411.127" y1="474.577" x2="1283.83" y2="474.577" gradientUnits="userSpaceOnUse">
<stop stop-color="#53C2E4"/>
<stop offset="0.41" stop-color="#884F9A"/>
<stop offset="0.86" stop-color="#7974B5"/>
<stop offset="1" stop-color="white"/>
</linearGradient>
<linearGradient id="paint15_linear_194_51" x1="418.005" y1="477.645" x2="1289.6" y2="477.645" gradientUnits="userSpaceOnUse">
<stop stop-color="#53C2E4"/>
<stop offset="0.41" stop-color="#884F9A"/>
<stop offset="0.86" stop-color="#7974B5"/>
<stop offset="1" stop-color="white"/>
</linearGradient>
<linearGradient id="paint16_linear_194_51" x1="424.444" y1="480.641" x2="1295.25" y2="480.641" gradientUnits="userSpaceOnUse">
<stop stop-color="#53C2E4"/>
<stop offset="0.41" stop-color="#884F9A"/>
<stop offset="0.86" stop-color="#7974B5"/>
<stop offset="1" stop-color="white"/>
</linearGradient>
<linearGradient id="paint17_linear_194_51" x1="430.4" y1="483.537" x2="1300.71" y2="483.537" gradientUnits="userSpaceOnUse">
<stop stop-color="#53C2E4"/>
<stop offset="0.41" stop-color="#884F9A"/>
<stop offset="0.86" stop-color="#7974B5"/>
<stop offset="1" stop-color="white"/>
</linearGradient>
<linearGradient id="paint18_linear_194_51" x1="435.803" y1="486.271" x2="1305.96" y2="486.271" gradientUnits="userSpaceOnUse">
<stop stop-color="#53C2E4"/>
<stop offset="0.41" stop-color="#884F9A"/>
<stop offset="0.86" stop-color="#7974B5"/>
<stop offset="1" stop-color="white"/>
</linearGradient>
<linearGradient id="paint19_linear_194_51" x1="440.591" y1="488.834" x2="1310.94" y2="488.834" gradientUnits="userSpaceOnUse">
<stop stop-color="#53C2E4"/>
<stop offset="0.41" stop-color="#884F9A"/>
<stop offset="0.86" stop-color="#7974B5"/>
<stop offset="1" stop-color="white"/>
</linearGradient>
<linearGradient id="paint20_linear_194_51" x1="444.723" y1="491.171" x2="1315.62" y2="491.171" gradientUnits="userSpaceOnUse">
<stop stop-color="#53C2E4"/>
<stop offset="0.41" stop-color="#884F9A"/>
<stop offset="0.86" stop-color="#7974B5"/>
<stop offset="1" stop-color="white"/>
</linearGradient>
<linearGradient id="paint21_linear_194_51" x1="448.137" y1="493.246" x2="1319.93" y2="493.246" gradientUnits="userSpaceOnUse">
<stop stop-color="#53C2E4"/>
<stop offset="0.41" stop-color="#884F9A"/>
<stop offset="0.86" stop-color="#7974B5"/>
<stop offset="1" stop-color="white"/>
</linearGradient>
<linearGradient id="paint22_linear_194_51" x1="450.782" y1="495.033" x2="1323.85" y2="495.033" gradientUnits="userSpaceOnUse">
<stop stop-color="#53C2E4"/>
<stop offset="0.41" stop-color="#884F9A"/>
<stop offset="0.86" stop-color="#7974B5"/>
<stop offset="1" stop-color="white"/>
</linearGradient>
<linearGradient id="paint23_linear_194_51" x1="452.586" y1="496.486" x2="1327.32" y2="496.486" gradientUnits="userSpaceOnUse">
<stop stop-color="#53C2E4"/>
<stop offset="0.41" stop-color="#884F9A"/>
<stop offset="0.86" stop-color="#7974B5"/>
<stop offset="1" stop-color="white"/>
</linearGradient>
<linearGradient id="paint24_linear_194_51" x1="453.519" y1="497.569" x2="1330.29" y2="497.569" gradientUnits="userSpaceOnUse">
<stop stop-color="#53C2E4"/>
<stop offset="0.41" stop-color="#884F9A"/>
<stop offset="0.86" stop-color="#7974B5"/>
<stop offset="1" stop-color="white"/>
</linearGradient>
<linearGradient id="paint25_linear_194_51" x1="453.499" y1="498.245" x2="1332.71" y2="498.245" gradientUnits="userSpaceOnUse">
<stop stop-color="#53C2E4"/>
<stop offset="0.41" stop-color="#884F9A"/>
<stop offset="0.86" stop-color="#7974B5"/>
<stop offset="1" stop-color="white"/>
</linearGradient>
<linearGradient id="paint26_linear_194_51" x1="452.494" y1="498.48" x2="1334.54" y2="498.48" gradientUnits="userSpaceOnUse">
<stop stop-color="#53C2E4"/>
<stop offset="0.41" stop-color="#884F9A"/>
<stop offset="0.86" stop-color="#7974B5"/>
<stop offset="1" stop-color="white"/>
</linearGradient>
<clipPath id="clip0_194_51">
<rect width="1600" height="967" fill="white"/>
</clipPath>
</defs>
</svg>
