<svg width="210" height="210" viewBox="0 0 210 210" fill="none" xmlns="http://www.w3.org/2000/svg">
<path d="M52.5 52.5C81.4949 23.5051 128.505 23.5051 157.5 52.5C186.495 81.4949 186.495 128.505 157.5 157.5C128.505 186.495 81.4949 186.495 52.5 157.5C23.5051 128.505 23.5051 81.4949 52.5 52.5Z" fill="#0E142B"/>
<path d="M53.2071 53.2071C81.8115 24.6027 128.188 24.6027 156.793 53.2071C185.397 81.8115 185.397 128.188 156.793 156.793C128.188 185.397 81.8115 185.397 53.2071 156.793C24.6027 128.188 24.6027 81.8115 53.2071 53.2071Z" stroke="url(#paint0_linear_2_519)" stroke-opacity="0.4" stroke-width="2"/>
<path d="M53.0303 53.0303C81.7324 24.3283 128.268 24.3283 156.97 53.0303C185.672 81.7324 185.672 128.268 156.97 156.97C128.268 185.672 81.7324 185.672 53.0303 156.97C24.3283 128.268 24.3283 81.7324 53.0303 53.0303Z" stroke="url(#paint1_linear_2_519)" stroke-width="1.5"/>
<path d="M129.697 102.134C129.66 102.018 129.635 101.896 129.628 101.773C129.532 100.39 129.263 99.2221 129.055 98.4883C129.037 98.4332 129.008 98.3372 128.983 98.2379C127.905 94.1068 126.291 91.875 126.274 91.8529C126.094 91.6079 125.995 91.308 125.994 91.0053C125.98 90.8357 125.752 89 121.855 89H119.332C117.59 89 116.321 89.3735 115.662 90.0785C115.296 90.4691 114.739 90.6341 114.221 90.5029C112.145 89.9901 109.589 89.5043 104.975 89.4271C100.41 89.5043 97.8521 89.9901 95.7754 90.5029C95.2544 90.6337 94.6985 90.4691 94.3347 90.0776C93.6772 89.373 92.4074 89.0005 90.667 89.0005H88.1403C84.2397 89.0005 84.0129 90.8335 83.9991 91.0424C83.9735 91.4862 83.7453 91.8899 83.4034 92.1502C82.9544 92.9224 81.8601 95.0035 81.0106 98.2475C80.5505 100.057 80.4194 101.19 80.3567 101.735C79.5021 107.184 80.0707 116.975 83.2971 120.681C84.0716 121.57 84.9221 122 85.8972 122C87.9166 122 88.12 121.498 89.0099 118.47C89.2272 117.733 89.4682 116.91 89.7807 116.011C91.467 111.127 94.1091 110.796 99.9027 110.07L100.669 109.973C102.171 109.826 103.445 109.752 104.973 109.727C106.554 109.754 107.827 109.826 109.283 109.969L110.092 110.071C115.884 110.796 118.529 111.128 120.215 116.011C120.528 116.911 120.769 117.736 120.988 118.476C121.877 121.498 122.08 122 124.1 122C125.075 122 125.926 121.57 126.699 120.681C129.863 117.049 130.471 107.548 129.697 102.135L129.697 102.134ZM91.5074 108.262C87.6353 108.262 84.4937 105.171 84.4937 101.359C84.4937 97.5473 87.6348 94.455 91.5074 94.455C95.3813 94.455 98.5193 97.5473 98.5193 101.359C98.5193 105.171 95.3808 108.262 91.5074 108.262ZM118.49 94.4536C119.881 94.4536 121.014 95.565 121.014 96.9385C121.014 98.3115 119.881 99.4229 118.49 99.4229C117.097 99.4229 115.963 98.3115 115.963 96.9385C115.963 95.565 117.097 94.4536 118.49 94.4536ZM114 103.842C112.601 103.842 111.473 102.732 111.473 101.358C111.473 99.9852 112.601 98.8748 114 98.8748C115.392 98.8748 116.522 99.9852 116.522 101.358C116.522 102.732 115.392 103.842 114 103.842ZM118.49 108.262C117.097 108.262 115.963 107.147 115.963 105.775C115.963 104.405 117.097 103.291 118.49 103.291C119.881 103.291 121.014 104.405 121.014 105.775C121.014 107.148 119.881 108.262 118.49 108.262ZM122.975 103.842C121.584 103.842 120.452 102.732 120.452 101.358C120.452 99.9852 121.584 98.8748 122.975 98.8748C124.374 98.8748 125.503 99.9852 125.503 101.358C125.503 102.732 124.373 103.842 122.975 103.842Z" fill="url(#paint2_linear_2_519)"/>
<defs>
<linearGradient id="paint0_linear_2_519" x1="4.0608" y1="216.642" x2="230.285" y2="31.4867" gradientUnits="userSpaceOnUse">
<stop stop-color="#177D83"/>
<stop offset="1" stop-color="#801887"/>
</linearGradient>
<linearGradient id="paint1_linear_2_519" x1="105" y1="167.58" x2="105" y2="210" gradientUnits="userSpaceOnUse">
<stop stop-opacity="0"/>
<stop offset="1" stop-color="#04FFE1"/>
</linearGradient>
<linearGradient id="paint2_linear_2_519" x1="105.113" y1="89" x2="105.2" y2="127.63" gradientUnits="userSpaceOnUse">
<stop stop-color="#09A7BC"/>
<stop offset="1" stop-color="#D000E7"/>
</linearGradient>
</defs>
</svg>
