<svg width="210" height="211" viewBox="0 0 210 211" fill="none" xmlns="http://www.w3.org/2000/svg">
<path d="M53.0301 156.973C24.328 128.271 24.328 81.7356 53.0301 53.0335C81.7322 24.3315 128.267 24.3315 156.969 53.0335C185.672 81.7356 185.672 128.271 156.969 156.973C128.267 185.675 81.7322 185.675 53.0301 156.973Z" fill="#0E142B" stroke="url(#paint0_linear_2_509)" stroke-width="1.5"/>
<path d="M123.65 104.159C123.496 104.572 123.516 104.883 123.731 105.231C124.223 106.028 124.696 106.836 125.2 107.626C125.42 107.97 125.522 108.305 125.461 108.718C125.239 110.223 124.767 111.644 124.086 112.999C123.85 113.469 123.521 113.819 123.035 114.058C120.678 115.217 118.336 116.405 115.98 117.564C115.649 117.727 115.478 117.909 115.461 118.293C115.413 119.373 115.326 120.451 115.26 121.53C115.206 122.426 115.159 123.323 115.11 124.219C115.098 124.437 115.139 124.631 115.378 124.711C115.589 124.781 115.783 124.749 115.94 124.584C116.112 124.402 116.08 124.167 116.093 123.945C116.187 122.295 116.276 120.645 116.38 118.996C116.395 118.769 116.316 118.48 116.599 118.34C117.843 117.727 119.091 117.118 120.377 116.489C120.377 116.636 120.382 116.698 120.376 116.758C119.999 120.08 119.555 123.397 119.271 126.727C119.143 128.217 118.5 129.284 117.412 130.206C116.587 130.906 115.767 131.61 114.889 132.241C112.602 133.882 110.252 135.405 107.613 136.384C106.84 136.67 106.023 136.819 105.198 136.819C104.219 136.819 103.252 136.612 102.36 136.208C100.86 135.529 98.478 134.414 97.1504 133.55C95.2324 132.302 93.3848 130.962 91.8078 129.284C91.3655 128.814 91.0652 128.293 90.9919 127.624C90.7203 125.152 90.4107 122.683 90.127 120.212C89.987 118.992 89.8721 117.768 89.7377 116.473C90.9521 117.071 92.072 117.65 93.2178 118.172C93.6183 118.353 93.7481 118.592 93.7666 119.003C93.8426 120.674 93.9492 122.344 94.0299 124.015C94.0484 124.399 94.1096 124.739 94.5722 124.739C95.1062 124.739 95.0321 124.323 95.0117 123.981C94.9041 122.149 94.7706 120.317 94.6918 118.482C94.6696 117.957 94.4545 117.692 94.0021 117.471C91.6789 116.339 89.3695 115.176 87.052 114.032C86.6747 113.845 86.3567 113.552 86.1547 113.183C85.4371 111.878 85.0014 110.481 84.7122 109.028C84.5926 108.429 84.6871 107.917 85.0654 107.423C85.3732 107.021 85.5697 106.532 85.883 106.135C86.5913 105.239 86.786 104.323 86.1639 103.304C86.0814 103.168 86.0508 102.999 86.0008 102.844C84.4721 98.105 83.5478 93.2875 84.2255 88.2838C84.7743 84.227 86.4485 80.7607 89.7461 78.2097C92.7322 75.8997 96.471 74.8183 100.167 74.3411C104.168 73.8249 108.272 73.8546 112.224 74.7071C113.37 74.9545 114.502 75.2704 115.607 75.6615C118.806 76.7928 121.505 78.596 123.423 81.4537C125.316 84.2743 126.034 87.4451 126.117 90.7772C126.232 95.4038 125.271 99.8467 123.65 104.158L123.65 104.159ZM98.2636 122.387C98.2636 121.961 98.0884 121.64 97.636 121.652C97.1817 121.664 97.0362 122.003 97.0381 122.421C97.0418 123.012 97.039 123.603 97.039 124.195C97.039 124.806 97.0371 125.418 97.0399 126.029C97.0418 126.451 97.2096 126.768 97.6694 126.762C98.0967 126.757 98.2599 126.453 98.2618 126.057C98.2655 124.834 98.2636 123.61 98.2636 122.387ZM101.154 104.565C101.146 103.201 100.914 102.089 100.51 101.246C99.9083 99.9927 99.0637 99.5488 97.687 99.7536C95.9274 100.016 94.3376 100.699 92.8125 101.6C90.9529 102.699 90.3132 104.354 90.4717 106.406C90.6228 108.36 92.527 109.923 94.4747 109.674C96.441 109.423 98.1717 108.594 99.745 107.413C100.774 106.64 101.239 105.613 101.154 104.565ZM101.977 126.892C101.988 125.632 101.992 124.372 101.976 123.111C101.97 122.716 101.748 122.451 101.321 122.475C100.928 122.498 100.758 122.753 100.758 123.133C100.758 123.763 100.758 124.393 100.757 125.023C100.757 125.632 100.764 126.242 100.756 126.852C100.75 127.263 100.933 127.535 101.344 127.551C101.762 127.569 101.975 127.292 101.977 126.892ZM105.68 125.382C105.68 124.771 105.669 124.16 105.684 123.551C105.694 123.119 105.524 122.802 105.086 122.791C104.652 122.78 104.45 123.075 104.452 123.514C104.458 124.736 104.454 125.956 104.455 127.177C104.456 127.577 104.626 127.867 105.051 127.873C105.509 127.88 105.683 127.582 105.68 127.152C105.677 126.562 105.68 125.972 105.68 125.382ZM107.132 114.635C106.677 112.677 105.951 110.805 105.195 108.778C105.15 108.655 104.975 108.655 104.93 108.779C104.499 109.974 104.109 111.028 103.748 112.093C103.488 112.861 103.271 113.645 103.049 114.426C102.897 114.964 102.859 115.506 103.093 116.038C103.551 117.079 104.656 117.594 105.713 117.254C106.81 116.902 107.418 115.862 107.132 114.635ZM109.377 125.028C109.377 124.419 109.372 123.809 109.379 123.199C109.384 122.804 109.253 122.501 108.821 122.476C108.361 122.45 108.16 122.748 108.156 123.169C108.146 124.408 108.146 125.648 108.156 126.887C108.159 127.288 108.376 127.563 108.79 127.552C109.203 127.542 109.384 127.267 109.379 126.857C109.372 126.248 109.377 125.638 109.377 125.028ZM113.096 122.413C113.098 121.992 112.946 121.657 112.491 121.652C112.039 121.646 111.87 121.973 111.87 122.396C111.87 123.599 111.871 124.801 111.869 126.004C111.868 126.422 112.015 126.755 112.476 126.762C112.94 126.769 113.094 126.44 113.094 126.021C113.095 125.43 113.094 124.838 113.094 124.247C113.095 123.636 113.091 123.024 113.096 122.413ZM118.05 102.132C116.379 100.833 114.471 100.043 112.374 99.7414C111.062 99.5524 110.237 100.007 109.651 101.213C109.179 102.183 108.994 103.22 108.977 104.58C108.877 105.627 109.388 106.671 110.456 107.466C111.848 108.502 113.388 109.227 115.079 109.596C115.855 109.765 116.645 109.798 117.411 109.427C120.224 108.066 120.59 104.107 118.05 102.132Z" fill="url(#paint1_linear_2_509)"/>
<defs>
<linearGradient id="paint0_linear_2_509" x1="4.06056" y1="216.645" x2="230.285" y2="31.4899" gradientUnits="userSpaceOnUse">
<stop stop-color="#177D83"/>
<stop offset="1" stop-color="#801887"/>
</linearGradient>
<linearGradient id="paint1_linear_2_509" x1="105.158" y1="74" x2="105.531" y2="147.536" gradientUnits="userSpaceOnUse">
<stop stop-color="#09A7BC"/>
<stop offset="1" stop-color="#D000E7"/>
</linearGradient>
</defs>
</svg>
