<svg width="210" height="210" viewBox="0 0 210 210" fill="none" xmlns="http://www.w3.org/2000/svg">
<path d="M52.7955 157.204C23.964 128.373 23.964 81.6272 52.7955 52.7955C81.6272 23.964 128.373 23.964 157.204 52.7955C186.036 81.6272 186.036 128.373 157.204 157.204C128.373 186.036 81.6272 186.036 52.7955 157.204Z" fill="#0E142B" stroke="url(#paint0_linear_154_50)" stroke-width="1.5"/>
<path fill-rule="evenodd" clip-rule="evenodd" d="M72.0356 121.467C72.1644 122.34 71.5601 123.151 70.6897 123.278C69.8112 123.406 69.0054 122.802 68.8766 121.929C68.7478 121.058 69.352 120.246 70.2225 120.119C71.1004 119.992 71.914 120.595 72.0356 121.467ZM115.581 87.4005C120.033 92.3311 123.355 96.6131 125.547 100.455C129.703 107.74 128.674 115.084 124.6 120.458L120.967 122.571C119.989 123.14 118.993 123.499 117.964 123.675C118.393 123.105 118.725 122.423 118.94 121.633C119.748 118.642 117.955 115.685 115.077 114.689L114.891 114.624L114.697 114.589C114.032 114.468 113.37 114.33 112.713 114.18C113.301 113.395 113.646 112.429 113.618 111.265C113.613 111.065 113.602 110.889 113.584 110.739C113.35 108.823 112.313 107.576 110.935 106.745C109.725 106.016 108.275 105.653 106.946 105.435C105.987 105.278 104.976 105.012 104.236 104.529C103.663 104.155 103.251 103.614 103.213 102.823C103.172 101.968 103.546 101.278 104.135 100.798C104.597 100.424 105.187 100.163 105.825 100.035C106.081 99.9836 106.346 99.9529 106.613 99.9465C106.641 99.9482 106.67 99.9493 106.699 99.9493C106.733 99.9493 106.767 99.9484 106.802 99.9456C107.154 99.951 107.511 99.9959 107.858 100.084C108.926 100.355 109.898 101.057 110.411 102.275C110.718 103.006 111.559 103.349 112.291 103.043C113.023 102.736 113.367 101.896 113.06 101.165C112.158 99.0213 110.441 97.7828 108.554 97.3049C108.415 97.2698 108.275 97.2392 108.135 97.2122L108.134 96.103C108.134 95.3113 107.491 94.6689 106.698 94.6689C105.904 94.6689 105.261 95.3114 105.261 96.103V97.2361C104.173 97.4554 103.15 97.9137 102.326 98.5824C101.061 99.6096 100.259 101.101 100.349 102.96C100.439 104.829 101.373 106.082 102.674 106.929C103.807 107.668 105.199 108.05 106.483 108.26C107.514 108.429 108.615 108.696 109.451 109.2C110.12 109.604 110.622 110.192 110.731 111.075C110.745 111.193 110.752 111.278 110.754 111.333C110.771 112.035 110.434 112.57 109.929 112.952C109.758 113.083 109.568 113.198 109.364 113.299C105.652 112.209 102.204 110.797 98.539 109.61C94.7123 108.37 91.1465 109.773 87.8409 111.684L85.5895 112.987C84.873 109.066 85.5183 104.75 87.9697 100.455C90.1618 96.6132 93.4835 92.3313 97.9354 87.4004C98.4936 87.5818 99.0894 87.6807 99.708 87.6807H113.813C114.428 87.6812 115.023 87.5821 115.581 87.4005ZM99.7045 85.1037H113.81C115.549 85.1037 116.971 83.683 116.971 81.9479C116.971 80.2119 115.549 78.792 113.81 78.792L99.7045 78.7918C97.9654 78.7918 96.5431 80.2116 96.5431 81.9476C96.542 83.6838 97.9651 85.1037 99.7045 85.1037ZM99.5891 76.2167L96.9921 73.6242C95.7281 72.3625 95.7281 70.2984 96.9921 69.0376C98.067 67.9646 99.7684 67.7832 101.047 68.6026C101.522 68.9073 102.068 68.9559 102.589 68.7402C103.11 68.5245 103.461 68.1058 103.582 67.5549C103.901 66.0991 105.206 65 106.757 65C108.279 65 109.608 66.071 109.932 67.5549C110.052 68.1058 110.404 68.5245 110.925 68.7402C111.446 68.9559 111.992 68.9073 112.467 68.6026C113.724 67.7975 115.425 67.9429 116.522 69.0376C117.786 70.2993 117.786 72.3633 116.522 73.6242L113.925 76.2167C113.886 76.2158 113.848 76.215 113.809 76.215H99.7047C99.6659 76.2158 99.6268 76.2158 99.5891 76.2167ZM77.1883 120.823L85.7986 135.991L89.0385 134.124C89.3527 133.943 89.7235 133.894 90.0783 133.989L110.426 138.462C113.118 139.181 115.648 138.826 117.962 137.406L142.67 122.077C144.016 121.253 144.427 118.835 143.5 117.287C142.154 115.044 138.592 115.309 133.966 117.997L122.266 124.799C119.832 126.218 117.205 126.678 114.247 126.205C113.707 126.118 113.175 126.025 112.651 125.924C112.538 125.916 102.697 123.363 101.569 123.06C100.835 122.865 100.4 122.117 100.602 121.39C100.795 120.661 101.544 120.23 102.27 120.425C103.422 120.733 110.401 122.708 113.021 123.216C114.359 123.302 115.915 122.93 116.447 120.964C116.882 119.352 115.931 117.714 114.23 117.126C109.451 116.252 104.833 114.587 101.126 113.247C99.829 112.78 98.7082 112.376 97.7413 112.062C94.6949 111.075 91.8016 112.37 89.1339 113.916L77.1883 120.823ZM85.4868 141.002L72.3177 117.774C72.1889 117.546 71.9793 117.385 71.7208 117.313C71.6325 117.289 71.5436 117.278 71.4552 117.278C71.2859 117.278 71.125 117.321 70.9798 117.403L66.4984 119.933C66.023 120.201 65.8621 120.802 66.1276 121.273L79.2967 144.501C79.5631 144.974 80.1671 145.139 80.6343 144.873L85.1157 142.342C85.3416 142.214 85.5028 142.002 85.5748 141.749C85.648 141.493 85.6153 141.229 85.4868 141.002Z" fill="url(#paint1_linear_154_50)"/>
<defs>
<linearGradient id="paint0_linear_154_50" x1="3.60499" y1="217.146" x2="230.85" y2="31.1547" gradientUnits="userSpaceOnUse">
<stop stop-color="#177D83"/>
<stop offset="1" stop-color="#801887"/>
</linearGradient>
<linearGradient id="paint1_linear_154_50" x1="105.176" y1="65" x2="105.503" y2="158.649" gradientUnits="userSpaceOnUse">
<stop stop-color="#09A7BC"/>
<stop offset="1" stop-color="#D000E7"/>
</linearGradient>
</defs>
</svg>
