<svg width="210" height="210" viewBox="0 0 210 210" fill="none" xmlns="http://www.w3.org/2000/svg">
<path d="M53.0303 156.97C24.3283 128.268 24.3283 81.7324 53.0303 53.0303C81.7324 24.3283 128.268 24.3283 156.97 53.0303C185.672 81.7324 185.672 128.268 156.97 156.97C128.268 185.672 81.7324 185.672 53.0303 156.97Z" fill="#0E142B" stroke="url(#paint0_linear_111_6)" stroke-width="1.5"/>
<path d="M124.451 102.568V99.0341H88.3828V102.568H77.009C77.009 102.568 76.6845 108.673 79.9333 111.564C83.4988 114.737 88.3823 116.061 88.3823 116.061V118.31H94.7446C95.1589 118.715 95.4706 119.318 95.4706 120.224C95.4706 121.815 94.3837 122.418 93.5588 122.648H88.3823V131H124.45L124.451 122.648H118.44C118.44 122.648 117.628 114.135 124.451 109.315C127.262 107.329 132.25 106.423 132.25 106.423V102.568H124.451ZM99.8509 96.8863L108.66 95.1155L108.265 89.3687L125.37 86.7378L123.867 79.7532L107.252 84.3868L105.423 79.2089L96.6145 80.9804L97.4885 89.0887L99.8509 96.8863ZM88.2842 87.612L95.2531 96.6313H97.4068L93.4156 88.9586L95.1419 89.0073L91.7053 80.3466L86.0038 80.5971L89.9317 87.4871L88.2842 87.612ZM83.9758 85.6084L80.4285 85.7332L92.7191 96.256L83.9758 85.6084ZM86.0033 83.6976L83.1527 79H79.6364L83.5324 83.6976H86.0033ZM89.0443 96.631L84.103 93.656L82.8197 96.631H89.0443Z" fill="url(#paint1_linear_111_6)"/>
<defs>
<linearGradient id="paint0_linear_111_6" x1="4.0608" y1="216.642" x2="230.285" y2="31.4867" gradientUnits="userSpaceOnUse">
<stop stop-color="#177D83"/>
<stop offset="1" stop-color="#801887"/>
</linearGradient>
<linearGradient id="paint1_linear_111_6" x1="104.75" y1="79" x2="104.945" y2="139.872" gradientUnits="userSpaceOnUse">
<stop stop-color="#09A7BC"/>
<stop offset="1" stop-color="#D000E7"/>
</linearGradient>
</defs>
</svg>
