<svg width="210" height="210" viewBox="0 0 210 210" fill="none" xmlns="http://www.w3.org/2000/svg">
<path d="M52.7955 157.204C23.964 128.373 23.964 81.6272 52.7955 52.7955C81.6272 23.964 128.373 23.964 157.204 52.7955C186.036 81.6272 186.036 128.373 157.204 157.204C128.373 186.036 81.6272 186.036 52.7955 157.204Z" fill="#0E142B" stroke="url(#paint0_linear_153_13)" stroke-width="1.5"/>
<path d="M135.353 88.0558C135.353 86.7158 134.531 86.3455 133.527 87.2323L124.077 95.5795C125.526 96.8854 126.443 98.7711 126.443 100.875C126.443 104.816 123.248 108.01 119.308 108.01C115.368 108.01 112.174 104.816 112.174 100.875C112.174 99.2276 112.737 97.7147 113.676 96.5071L106.211 81.3092C105.62 80.1071 104.604 80.0812 103.953 81.2531L95.5213 96.4402C96.4902 97.6584 97.0734 99.1983 97.0734 100.875C97.0734 104.815 93.8786 108.01 89.9384 108.01C85.9981 108.01 82.804 104.815 82.804 100.875C82.804 98.7629 83.7274 96.8714 85.1858 95.5646L76.4205 87.2913C75.4461 86.3718 74.6484 86.7155 74.6484 88.0555L78.709 117.291C78.709 117.35 78.7227 117.405 78.7262 117.463C78.7214 117.542 78.709 117.619 78.709 117.698C78.709 119.064 79.2589 120.367 80.316 121.562C79.3196 122.315 78.709 123.305 78.709 124.393C78.709 126.745 81.5368 128.652 85.0239 128.652H124.785C128.272 128.652 131.098 126.745 131.098 124.393C131.098 123.347 130.538 122.391 129.61 121.649C130.718 120.431 131.292 119.097 131.292 117.698C131.292 117.619 131.279 117.542 131.275 117.463C131.279 117.405 131.292 117.35 131.292 117.292L135.353 88.0558Z" fill="url(#paint1_linear_153_13)"/>
<defs>
<linearGradient id="paint0_linear_153_13" x1="3.60499" y1="217.146" x2="230.85" y2="31.1547" gradientUnits="userSpaceOnUse">
<stop stop-color="#177D83"/>
<stop offset="1" stop-color="#801887"/>
</linearGradient>
<linearGradient id="paint1_linear_153_13" x1="105.138" y1="80.3906" x2="105.291" y2="136.886" gradientUnits="userSpaceOnUse">
<stop stop-color="#09A7BC"/>
<stop offset="1" stop-color="#D000E7"/>
</linearGradient>
</defs>
</svg>
