<svg width="210" height="210" viewBox="0 0 210 210" fill="none" xmlns="http://www.w3.org/2000/svg">
<path d="M52.5 52.5C81.4949 23.5051 128.505 23.5051 157.5 52.5C186.495 81.4949 186.495 128.505 157.5 157.5C128.505 186.495 81.4949 186.495 52.5 157.5C23.5051 128.505 23.5051 81.4949 52.5 52.5Z" fill="#0E142B"/>
<path d="M53.0303 53.0303C81.7324 24.3283 128.268 24.3283 156.97 53.0303C185.672 81.7324 185.672 128.268 156.97 156.97C128.268 185.672 81.7324 185.672 53.0303 156.97C24.3283 128.268 24.3283 81.7324 53.0303 53.0303Z" stroke="url(#paint0_linear_2_531)" stroke-opacity="0.4" stroke-width="1.5"/>
<path d="M53.0303 53.0303C81.7324 24.3283 128.268 24.3283 156.97 53.0303C185.672 81.7324 185.672 128.268 156.97 156.97C128.268 185.672 81.7324 185.672 53.0303 156.97C24.3283 128.268 24.3283 81.7324 53.0303 53.0303Z" stroke="url(#paint1_linear_2_531)" stroke-width="1.5"/>
<path d="M97.0839 101.365V103.126C97.0839 104.121 97.4096 105.036 97.964 105.767C98.7651 106.832 100.05 107.527 101.485 107.527C102.92 107.527 104.205 106.832 105.006 105.767C105.56 105.036 105.886 104.121 105.886 103.126V101.365H97.0839ZM101.485 105.767C100.033 105.767 98.8446 104.578 98.8446 103.126H104.126C104.126 104.578 102.938 105.767 101.485 105.767Z" fill="url(#paint2_linear_2_531)"/>
<path d="M90.042 101.365V103.126C90.042 104.121 90.3678 105.036 90.9221 105.767C91.7232 106.832 93.0085 107.527 94.443 107.527C95.8779 107.527 97.1632 106.832 97.9639 105.767C98.5182 105.036 98.844 104.121 98.844 103.126V101.365H90.042ZM94.4429 105.767C92.9904 105.767 91.8022 104.578 91.8022 103.126H97.0837C97.0837 104.578 95.8955 105.767 94.4429 105.767Z" fill="url(#paint3_linear_2_531)"/>
<path d="M82.9998 101.365V103.126C82.9998 105.415 84.8701 107.386 87.1521 107.52C87.2348 107.525 87.3179 107.527 87.4011 107.527C88.836 107.527 90.1213 106.831 90.922 105.766C91.4764 105.036 91.8021 104.12 91.8021 103.125V101.365L82.9998 101.365ZM87.4012 105.767C86.9611 105.767 86.5299 105.652 86.16 105.458L86.1511 105.45C86.0982 105.414 86.0457 105.388 85.9839 105.361C85.2534 104.886 84.7604 104.059 84.7604 103.126H90.0418C90.0418 104.578 88.8537 105.767 87.4011 105.767L87.4012 105.767Z" fill="url(#paint4_linear_2_531)"/>
<path d="M104.126 101.365V103.126C104.126 104.121 104.452 105.036 105.006 105.767C105.807 106.832 107.093 107.527 108.527 107.527C109.962 107.527 111.247 106.832 112.048 105.767C112.602 105.036 112.928 104.121 112.928 103.126V101.365H104.126ZM108.528 105.767C107.075 105.767 105.887 104.578 105.887 103.126H111.168C111.168 104.578 109.98 105.767 108.528 105.767Z" fill="url(#paint5_linear_2_531)"/>
<path d="M111.166 101.365V103.126C111.166 104.121 111.492 105.036 112.046 105.767C112.848 106.832 114.133 107.527 115.567 107.527C117.002 107.527 118.288 106.832 119.088 105.767C119.643 105.036 119.968 104.121 119.968 103.126V101.365H111.166ZM115.567 105.767C114.115 105.767 112.927 104.578 112.927 103.126H118.208C118.208 104.578 117.02 105.767 115.567 105.767Z" fill="url(#paint6_linear_2_531)"/>
<path d="M118.208 101.365V103.126C118.208 104.121 118.534 105.036 119.088 105.767C119.889 106.832 121.175 107.527 122.609 107.527C125.003 107.527 127.011 105.518 127.011 103.126V101.365H118.208ZM124.027 105.361C123.965 105.388 123.913 105.414 123.86 105.45L123.851 105.459C123.481 105.652 123.05 105.767 122.61 105.767C121.157 105.767 119.969 104.578 119.969 103.126H125.25C125.25 104.059 124.757 104.886 124.027 105.361L124.027 105.361Z" fill="url(#paint7_linear_2_531)"/>
<path d="M103.22 86.1899L103.15 85.8995L102.34 82.6691C102.242 82.2728 101.89 82 101.486 82H97.9646C97.5599 82 97.2077 82.2728 97.111 82.6691C96.9888 83.1566 96.8666 83.6445 96.7444 84.1319C96.5692 84.8299 96.217 85.6774 96.2142 86.3972C96.2114 87.2183 97.3146 87.6049 97.7928 86.9116C97.9103 86.7411 97.9619 86.5352 98.0116 86.3345C98.223 85.4758 98.4405 84.6189 98.651 83.7606H100.799C100.799 83.7606 101.063 84.8164 101.063 84.8168C101.222 85.452 101.284 86.532 101.75 87.0203C101.939 87.2192 102.229 87.3181 102.5 87.2763C103.009 87.1982 103.335 86.682 103.22 86.1899L103.22 86.1899Z" fill="url(#paint8_linear_2_531)"/>
<path d="M113.141 87.2641C112.922 87.3129 112.681 87.2743 112.488 87.1554C111.934 86.8143 111.594 83.7605 111.36 83.7605C110.643 83.7605 109.927 83.76 109.21 83.76C109.01 84.5722 108.81 85.384 108.61 86.1962C108.531 86.5178 108.44 86.8603 108.193 87.081C107.861 87.3774 107.285 87.3333 107.002 86.9899C106.471 86.3454 107.057 85.1229 107.235 84.4119C107.381 83.831 107.53 83.2506 107.672 82.6689C107.769 82.273 108.121 82.0002 108.526 82.0002H112.047C112.452 82.0002 112.804 82.273 112.901 82.6694C113.012 83.1136 113.123 83.5583 113.234 84.0025C113.411 84.7093 113.75 85.5229 113.789 86.2437C113.807 86.5703 113.703 86.9212 113.445 87.1224C113.356 87.1925 113.251 87.2395 113.141 87.2641L113.141 87.2641Z" fill="url(#paint9_linear_2_531)"/>
<path d="M124.827 101.365H85.1798L87.9967 94.3232H91.1481C90.9278 95.6964 91.2624 97.096 92.0988 98.2753C93.1285 99.6755 94.7042 100.485 96.4384 100.485C98.2956 100.485 100.048 99.4993 100.998 97.9236C101.368 97.3163 102.037 96.9464 102.732 96.9464H107.275C107.97 96.9464 108.639 97.3163 109 97.9059C109.959 99.4994 111.71 100.485 113.568 100.485C115.302 100.485 116.878 99.6755 117.916 98.2582C118.753 97.0965 119.078 95.6969 118.858 94.3233H122.009L124.827 101.365Z" fill="url(#paint10_linear_2_531)"/>
<path d="M117.04 94.3291C116.983 94.0243 116.9 93.718 116.799 93.4141C116.391 92.1875 115.967 90.9731 115.56 89.7469C115.56 88.2688 114.794 86.7967 113.666 85.8609C112.368 84.7828 110.581 84.3958 108.95 84.8088C108.324 84.9761 107.734 85.2577 107.206 85.6448C107.171 85.6624 107.144 85.6801 107.109 85.6977C106.563 86.0797 106.262 86.7131 105.725 87.0838C105.282 87.3891 104.64 87.3766 104.219 87.0411C104.04 86.898 103.905 86.7084 103.76 86.5309C101.139 83.3241 95.7045 84.4979 94.6487 88.4973C94.3648 89.5726 94.1603 90.6232 93.8086 91.6836C93.4917 92.6297 93.067 93.5971 92.9094 94.5836C92.7603 95.5172 92.9731 96.4684 93.5265 97.2378C94.2138 98.1797 95.27 98.7252 96.441 98.7252C97.6822 98.7252 98.8615 98.0649 99.5041 96.9999C100.191 95.8819 101.423 95.1868 102.735 95.1868H107.277C108.588 95.1868 109.821 95.8819 110.507 96.9999C111.15 98.0649 112.329 98.7252 113.57 98.7252C114.741 98.7252 115.798 98.1797 116.484 97.2378C117.13 96.3391 117.227 95.3382 117.04 94.329V94.3291ZM110.287 88.1624C110.613 88.1624 110.876 88.4263 110.876 88.752C110.876 89.0689 110.613 89.3329 110.287 89.3329C109.961 89.3329 109.697 89.0689 109.697 88.752C109.697 88.4263 109.961 88.1624 110.287 88.1624ZM99.7238 88.1624C100.05 88.1624 100.313 88.4263 100.313 88.752C100.313 89.0689 100.05 89.3329 99.7238 89.3329C99.3981 89.3329 99.1342 89.0689 99.1342 88.752C99.1342 88.4263 99.3986 88.1624 99.7238 88.1624ZM98.5533 90.5127C98.2276 90.5127 97.9636 90.2488 97.9636 89.923C97.9636 89.5973 98.2276 89.3334 98.5533 89.3334C98.8702 89.3334 99.1342 89.5973 99.1342 89.923C99.1342 90.2488 98.8702 90.5127 98.5533 90.5127ZM99.7238 91.6837C99.3981 91.6837 99.1342 91.4198 99.1342 91.094C99.1342 90.7771 99.3981 90.5132 99.7238 90.5132C100.05 90.5132 100.313 90.7771 100.313 91.094C100.314 91.4193 100.05 91.6837 99.7238 91.6837ZM100.895 90.5127C100.578 90.5127 100.314 90.2488 100.314 89.923C100.314 89.5973 100.578 89.3334 100.895 89.3334C101.221 89.3334 101.484 89.5973 101.484 89.923C101.484 90.2488 101.221 90.5127 100.895 90.5127ZM109.116 90.5127C108.791 90.5127 108.527 90.2488 108.527 89.923C108.527 89.5973 108.791 89.3334 109.116 89.3334C109.433 89.3334 109.697 89.5973 109.697 89.923C109.697 90.2488 109.433 90.5127 109.116 90.5127ZM110.287 91.6837C109.961 91.6837 109.697 91.4198 109.697 91.094C109.697 90.7771 109.961 90.5132 110.287 90.5132C110.613 90.5132 110.876 90.7771 110.876 91.094C110.876 91.4193 110.613 91.6837 110.287 91.6837ZM111.458 90.5127C111.141 90.5127 110.877 90.2488 110.877 89.923C110.877 89.5973 111.141 89.3334 111.458 89.3334C111.784 89.3334 112.047 89.5973 112.047 89.923C112.047 90.2488 111.783 90.5127 111.458 90.5127Z" fill="url(#paint11_linear_2_531)"/>
<path d="M123.492 107.439C123.21 107.501 122.911 107.527 122.612 107.527C121.177 107.527 119.891 106.831 119.091 105.766C118.29 106.831 117.004 107.527 115.57 107.527C114.135 107.527 112.85 106.831 112.049 105.766C111.248 106.831 109.963 107.527 108.528 107.527C107.093 107.527 105.808 106.831 105.007 105.766C104.206 106.831 102.921 107.527 101.486 107.527C100.051 107.527 98.7661 106.831 97.9654 105.766C97.1643 106.831 95.879 107.527 94.4445 107.527C93.0096 107.527 91.7243 106.831 90.9236 105.766C90.1225 106.831 88.8372 107.527 87.4027 107.527C87.1035 107.527 86.8042 107.501 86.5226 107.439C85.8698 107.307 85.2712 107.034 84.7607 106.647V126.892C84.7607 127.376 85.1566 127.772 85.6407 127.772H124.372C124.856 127.772 125.252 127.376 125.252 126.892L125.252 106.647C124.742 107.034 124.143 107.307 123.492 107.439L123.492 107.439ZM98.845 122.492H90.9227V111.929H98.845V122.492ZM119.091 122.492H111.169V111.929H119.091V122.492ZM109.409 126.013H100.606V111.93H109.409V126.013Z" fill="url(#paint12_linear_2_531)"/>
<path d="M93.5626 117.651C93.3373 117.651 93.1123 117.565 92.9404 117.393C92.5966 117.049 92.5966 116.492 92.9404 116.148L95.1411 113.947C95.485 113.603 96.0421 113.603 96.386 113.947C96.7299 114.291 96.7299 114.848 96.386 115.192L94.1853 117.393C94.0134 117.565 93.788 117.651 93.5626 117.651H93.5626Z" fill="url(#paint13_linear_2_531)"/>
<path d="M94.8849 120.732C94.6596 120.732 94.4346 120.646 94.2627 120.474C93.9189 120.13 93.9189 119.573 94.2627 119.229L96.4634 117.028C96.8073 116.684 97.3644 116.684 97.7083 117.028C98.0522 117.372 98.0522 117.929 97.7083 118.273L95.5076 120.474C95.3352 120.646 95.1098 120.732 94.8849 120.732H94.8849Z" fill="url(#paint14_linear_2_531)"/>
<path d="M112.928 117.651C112.702 117.651 112.477 117.565 112.305 117.393C111.962 117.049 111.962 116.492 112.305 116.148L114.506 113.947C114.85 113.603 115.407 113.603 115.751 113.947C116.095 114.291 116.095 114.848 115.751 115.192L113.55 117.393C113.378 117.565 113.153 117.651 112.928 117.651H112.928Z" fill="url(#paint15_linear_2_531)"/>
<path d="M115.128 120.732C114.902 120.732 114.677 120.646 114.505 120.474C114.162 120.13 114.162 119.573 114.505 119.229L116.706 117.028C117.05 116.684 117.607 116.684 117.951 117.028C118.295 117.372 118.295 117.929 117.951 118.273L115.75 120.474C115.578 120.646 115.353 120.732 115.128 120.732H115.128Z" fill="url(#paint16_linear_2_531)"/>
<defs>
<linearGradient id="paint0_linear_2_531" x1="4.0608" y1="216.642" x2="230.285" y2="31.4867" gradientUnits="userSpaceOnUse">
<stop stop-color="#177D83"/>
<stop offset="1" stop-color="#801887"/>
</linearGradient>
<linearGradient id="paint1_linear_2_531" x1="105" y1="167.58" x2="105" y2="210" gradientUnits="userSpaceOnUse">
<stop stop-opacity="0"/>
<stop offset="1" stop-color="#04FFE1"/>
</linearGradient>
<linearGradient id="paint2_linear_2_531" x1="101.505" y1="101.365" x2="101.522" y2="108.579" gradientUnits="userSpaceOnUse">
<stop stop-color="#09A7BC"/>
<stop offset="1" stop-color="#D000E7"/>
</linearGradient>
<linearGradient id="paint3_linear_2_531" x1="94.4629" y1="101.365" x2="94.4801" y2="108.579" gradientUnits="userSpaceOnUse">
<stop stop-color="#09A7BC"/>
<stop offset="1" stop-color="#D000E7"/>
</linearGradient>
<linearGradient id="paint4_linear_2_531" x1="87.4208" y1="101.365" x2="87.438" y2="108.578" gradientUnits="userSpaceOnUse">
<stop stop-color="#09A7BC"/>
<stop offset="1" stop-color="#D000E7"/>
</linearGradient>
<linearGradient id="paint5_linear_2_531" x1="108.547" y1="101.365" x2="108.564" y2="108.579" gradientUnits="userSpaceOnUse">
<stop stop-color="#09A7BC"/>
<stop offset="1" stop-color="#D000E7"/>
</linearGradient>
<linearGradient id="paint6_linear_2_531" x1="115.587" y1="101.365" x2="115.604" y2="108.579" gradientUnits="userSpaceOnUse">
<stop stop-color="#09A7BC"/>
<stop offset="1" stop-color="#D000E7"/>
</linearGradient>
<linearGradient id="paint7_linear_2_531" x1="122.629" y1="101.365" x2="122.646" y2="108.579" gradientUnits="userSpaceOnUse">
<stop stop-color="#09A7BC"/>
<stop offset="1" stop-color="#D000E7"/>
</linearGradient>
<linearGradient id="paint8_linear_2_531" x1="99.7444" y1="82" x2="99.7602" y2="88.1876" gradientUnits="userSpaceOnUse">
<stop stop-color="#09A7BC"/>
<stop offset="1" stop-color="#D000E7"/>
</linearGradient>
<linearGradient id="paint9_linear_2_531" x1="110.304" y1="82.0002" x2="110.32" y2="88.1863" gradientUnits="userSpaceOnUse">
<stop stop-color="#09A7BC"/>
<stop offset="1" stop-color="#D000E7"/>
</linearGradient>
<linearGradient id="paint10_linear_2_531" x1="105.093" y1="94.3232" x2="105.098" y2="102.567" gradientUnits="userSpaceOnUse">
<stop stop-color="#09A7BC"/>
<stop offset="1" stop-color="#D000E7"/>
</linearGradient>
<linearGradient id="paint11_linear_2_531" x1="105.049" y1="84.647" x2="105.081" y2="101.127" gradientUnits="userSpaceOnUse">
<stop stop-color="#09A7BC"/>
<stop offset="1" stop-color="#D000E7"/>
</linearGradient>
<linearGradient id="paint12_linear_2_531" x1="105.098" y1="105.766" x2="105.146" y2="131.527" gradientUnits="userSpaceOnUse">
<stop stop-color="#09A7BC"/>
<stop offset="1" stop-color="#D000E7"/>
</linearGradient>
<linearGradient id="paint13_linear_2_531" x1="94.6722" y1="113.689" x2="94.6879" y2="118.326" gradientUnits="userSpaceOnUse">
<stop stop-color="#09A7BC"/>
<stop offset="1" stop-color="#D000E7"/>
</linearGradient>
<linearGradient id="paint14_linear_2_531" x1="95.9945" y1="116.77" x2="96.0102" y2="121.407" gradientUnits="userSpaceOnUse">
<stop stop-color="#09A7BC"/>
<stop offset="1" stop-color="#D000E7"/>
</linearGradient>
<linearGradient id="paint15_linear_2_531" x1="114.037" y1="113.689" x2="114.053" y2="118.326" gradientUnits="userSpaceOnUse">
<stop stop-color="#09A7BC"/>
<stop offset="1" stop-color="#D000E7"/>
</linearGradient>
<linearGradient id="paint16_linear_2_531" x1="116.237" y1="116.77" x2="116.253" y2="121.407" gradientUnits="userSpaceOnUse">
<stop stop-color="#09A7BC"/>
<stop offset="1" stop-color="#D000E7"/>
</linearGradient>
</defs>
</svg>
