<svg width="210" height="210" viewBox="0 0 210 210" fill="none" xmlns="http://www.w3.org/2000/svg">
<path d="M52.7955 157.204C23.964 128.373 23.964 81.6272 52.7955 52.7955C81.6272 23.964 128.373 23.964 157.204 52.7955C186.036 81.6272 186.036 128.373 157.204 157.204C128.373 186.036 81.6272 186.036 52.7955 157.204Z" fill="#0E142B" stroke="url(#paint0_linear_153_27)" stroke-width="1.5"/>
<path d="M116.434 113.116L117.023 111.864L121.664 134.992C121.738 135.433 121.443 135.802 121.001 135.802H113.856L112.235 115.325H112.603C114.224 115.399 115.697 114.515 116.434 113.116Z" fill="url(#paint1_linear_153_27)"/>
<path d="M92.5662 113.116C93.3029 114.515 94.7026 115.399 96.3231 115.399H96.6914L95.0709 135.875H87.9254C87.4834 135.875 87.1151 135.433 87.2623 135.065L91.9767 111.864L92.5662 113.116Z" fill="url(#paint2_linear_153_27)"/>
<path d="M104.5 112.968L109.067 114.441L110.982 139.263C110.982 139.705 110.688 140 110.319 140H98.6803C98.2383 140 97.9436 139.632 98.0172 139.263L99.9324 114.441L104.5 112.968Z" fill="url(#paint3_linear_153_27)"/>
<path d="M85.4207 92.0501C85.5679 91.6818 85.5679 91.3136 85.4207 90.9453L83.1371 83.8743C82.8424 83.0642 83.2107 82.1801 84.021 81.7382L90.6508 78.3501C90.9455 78.2029 91.2402 77.9083 91.3875 77.6136L94.776 70.9846C95.1443 70.248 96.0282 69.8797 96.9123 70.1008L103.984 72.3841C104.353 72.5313 104.721 72.5313 105.089 72.3841L112.161 70.1008C112.971 69.8061 113.855 70.1744 114.297 70.9846L117.686 77.6136C117.833 77.9083 118.128 78.2029 118.423 78.3501L125.052 81.7382C125.789 82.1065 126.157 82.9903 125.936 83.8743L123.653 90.9453C123.505 91.3136 123.505 91.6818 123.653 92.0501L125.863 99.1211C126.158 99.9312 125.789 100.815 124.979 101.257L118.349 104.645C118.054 104.792 117.76 105.087 117.613 105.382L114.224 112.011C113.856 112.747 112.972 113.116 112.088 112.895L105.016 110.611C104.647 110.464 104.279 110.464 103.911 110.611L96.839 112.895C96.0287 113.189 95.1446 112.821 94.7026 112.011L91.3141 105.382C91.1669 105.087 90.8722 104.792 90.5775 104.645L83.9476 101.257C83.211 100.889 82.8426 100.005 83.0638 99.1211L85.4207 92.0501ZM104.5 104.645C111.793 104.645 117.686 98.7528 117.686 91.4609C117.686 84.1689 111.793 78.2765 104.5 78.2765C97.2071 78.2765 91.3139 84.1689 91.3139 91.4609C91.3139 98.7528 97.2071 104.645 104.5 104.645Z" fill="url(#paint4_linear_153_27)"/>
<path d="M96.0285 88.3674L101.185 87.3361C101.332 87.3361 101.48 87.1889 101.553 87.1151L104.058 82.5485C104.279 82.1803 104.795 82.1803 104.942 82.5485L107.447 87.1151C107.52 87.2623 107.668 87.3361 107.815 87.3361L112.898 88.3674C113.266 88.441 113.487 88.9567 113.193 89.2511L109.656 93.0811C109.583 93.2283 109.509 93.3758 109.509 93.523L110.172 98.6789C110.246 99.0472 109.804 99.4155 109.436 99.1944L104.721 96.9847C104.574 96.9111 104.426 96.9111 104.279 96.9847L99.5645 99.1944C99.1961 99.3416 98.7542 99.0472 98.8278 98.6789L99.4909 93.523C99.4909 93.3758 99.4909 93.2283 99.3436 93.0811L95.8076 89.2511C95.5129 88.8829 95.6601 88.441 96.0285 88.3674Z" fill="url(#paint5_linear_153_27)"/>
<defs>
<linearGradient id="paint0_linear_153_27" x1="3.60499" y1="217.146" x2="230.85" y2="31.1547" gradientUnits="userSpaceOnUse">
<stop stop-color="#177D83"/>
<stop offset="1" stop-color="#801887"/>
</linearGradient>
<linearGradient id="paint1_linear_153_27" x1="104.597" y1="70" x2="105.051" y2="151.941" gradientUnits="userSpaceOnUse">
<stop stop-color="#09A7BC"/>
<stop offset="1" stop-color="#D000E7"/>
</linearGradient>
<linearGradient id="paint2_linear_153_27" x1="104.597" y1="70" x2="105.051" y2="151.941" gradientUnits="userSpaceOnUse">
<stop stop-color="#09A7BC"/>
<stop offset="1" stop-color="#D000E7"/>
</linearGradient>
<linearGradient id="paint3_linear_153_27" x1="104.597" y1="70" x2="105.051" y2="151.941" gradientUnits="userSpaceOnUse">
<stop stop-color="#09A7BC"/>
<stop offset="1" stop-color="#D000E7"/>
</linearGradient>
<linearGradient id="paint4_linear_153_27" x1="104.597" y1="70" x2="105.051" y2="151.941" gradientUnits="userSpaceOnUse">
<stop stop-color="#09A7BC"/>
<stop offset="1" stop-color="#D000E7"/>
</linearGradient>
<linearGradient id="paint5_linear_153_27" x1="104.597" y1="70" x2="105.051" y2="151.941" gradientUnits="userSpaceOnUse">
<stop stop-color="#09A7BC"/>
<stop offset="1" stop-color="#D000E7"/>
</linearGradient>
</defs>
</svg>
