<svg width="210" height="210" viewBox="0 0 210 210" fill="none" xmlns="http://www.w3.org/2000/svg">
<path d="M52.7955 157.204C23.964 128.373 23.964 81.6272 52.7955 52.7955C81.6272 23.964 128.373 23.964 157.204 52.7955C186.036 81.6272 186.036 128.373 157.204 157.204C128.373 186.036 81.6272 186.036 52.7955 157.204Z" fill="#0E142B" stroke="url(#paint0_linear_153_13)" stroke-width="1.5"/>
<path d="M114.59 83.6828H112.103C112.103 84.5426 111.961 86.4774 111.322 88.4835C113.312 87.6238 114.519 85.7608 114.59 83.6828Z" fill="url(#paint1_linear_153_13)"/>
<path d="M130.082 71H78.9185C77.8526 71 77 71.8597 77 72.9345V137.065C77 138.14 77.8526 139 78.9185 139L130.082 139C131.147 139 132 138.14 132 137.065V72.9348C132 71.86 131.147 71 130.082 71ZM93.0594 129.398H88.5825C87.4456 129.398 86.5927 128.467 86.5927 127.392C86.5927 126.245 87.5166 125.385 88.5825 125.385H93.0594C94.1963 125.385 95.0492 126.317 95.0492 127.392C95.0489 128.467 94.1963 129.398 93.0594 129.398ZM93.0594 119.868H88.5825C87.4456 119.868 86.5927 118.937 86.5927 117.862C86.5927 116.715 87.5166 115.855 88.5825 115.855H93.0594C94.1963 115.855 95.0492 116.787 95.0492 117.862C95.0489 118.937 94.1963 119.868 93.0594 119.868ZM93.0594 110.338H88.5825C87.4456 110.338 86.5927 109.407 86.5927 108.332C86.5927 107.257 87.5166 106.325 88.5825 106.325H93.0594C94.1963 106.325 95.0492 107.257 95.0492 108.332C95.0489 109.407 94.1963 110.338 93.0594 110.338ZM99.3837 99.5901V97.8703C99.3837 97.6553 99.597 97.4405 99.81 97.4405H100.094C101.586 97.4405 102.795 96.2224 102.795 94.7175V93.9293C101.587 93.6427 100.592 93.0696 99.739 92.2096C99.5257 91.9945 99.3127 91.7081 99.0284 91.3498L97.6782 90.9916C94.3385 90.0599 92.0644 87.0506 92.0644 83.5395V82.2496C92.0644 81.7481 92.4907 81.318 92.9883 81.318H96.8966V79.8133C96.8966 79.3118 97.3229 78.8817 97.8205 78.8817H111.322C111.819 78.8817 112.246 79.3115 112.246 79.8133V81.318H116.154C116.651 81.318 117.078 81.7479 117.078 82.2496L117.077 83.5395C117.077 87.0506 114.732 90.0601 111.464 90.9916L110.113 91.3498C109.9 91.7081 109.687 91.9948 109.403 92.2096C108.55 93.0693 107.555 93.6427 106.347 93.9293V94.7175C106.347 96.2222 107.555 97.4405 109.048 97.4405H109.332C109.545 97.4405 109.758 97.6555 109.758 97.8703V99.5901C109.758 99.8052 109.545 100.02 109.332 100.02H99.8099C99.5966 100.092 99.3837 99.8768 99.3837 99.5901ZM120.417 129.398H101.658C100.521 129.398 99.6678 128.467 99.6678 127.392C99.6678 126.245 100.592 125.385 101.658 125.385H120.417C121.554 125.385 122.407 126.317 122.407 127.392C122.407 128.467 121.554 129.398 120.417 129.398ZM120.417 119.868H101.658C100.521 119.868 99.6678 118.937 99.6678 117.862C99.6678 116.715 100.592 115.855 101.658 115.855H120.417C121.554 115.855 122.407 116.787 122.407 117.862C122.407 118.937 121.554 119.868 120.417 119.868ZM120.417 110.338H101.658C100.521 110.338 99.6678 109.407 99.6678 108.332C99.6678 107.257 100.592 106.325 101.658 106.325H120.417C121.554 106.325 122.407 107.257 122.407 108.332C122.407 109.407 121.554 110.338 120.417 110.338Z" fill="url(#paint2_linear_153_13)"/>
<path d="M94.4095 83.6828C94.4805 85.7609 95.7597 87.6238 97.6072 88.4835C96.9676 86.549 96.8256 84.6142 96.8256 83.6828H94.4095Z" fill="url(#paint3_linear_153_13)"/>
<defs>
<linearGradient id="paint0_linear_153_13" x1="3.60499" y1="217.146" x2="230.85" y2="31.1547" gradientUnits="userSpaceOnUse">
<stop stop-color="#177D83"/>
<stop offset="1" stop-color="#801887"/>
</linearGradient>
<linearGradient id="paint1_linear_153_13" x1="104.624" y1="71" x2="104.959" y2="150.601" gradientUnits="userSpaceOnUse">
<stop stop-color="#09A7BC"/>
<stop offset="1" stop-color="#D000E7"/>
</linearGradient>
<linearGradient id="paint2_linear_153_13" x1="104.624" y1="71" x2="104.959" y2="150.601" gradientUnits="userSpaceOnUse">
<stop stop-color="#09A7BC"/>
<stop offset="1" stop-color="#D000E7"/>
</linearGradient>
<linearGradient id="paint3_linear_153_13" x1="104.624" y1="71" x2="104.959" y2="150.601" gradientUnits="userSpaceOnUse">
<stop stop-color="#09A7BC"/>
<stop offset="1" stop-color="#D000E7"/>
</linearGradient>
</defs>
</svg>
