<svg width="210" height="210" viewBox="0 0 210 210" fill="none" xmlns="http://www.w3.org/2000/svg">
<path d="M52.7955 157.204C23.964 128.373 23.964 81.6272 52.7955 52.7955C81.6272 23.964 128.373 23.964 157.204 52.7955C186.036 81.6272 186.036 128.373 157.204 157.204C128.373 186.036 81.6272 186.036 52.7955 157.204Z" fill="#0E142B" stroke="url(#paint0_linear_156_68)" stroke-width="1.5"/>
<path d="M138 102.439C138 83.9715 123.002 69 104.5 69C85.999 69 71 83.9715 71 102.439C71 102.774 71.0155 103.106 71.0248 103.439C71.0155 103.793 71 104.144 71 104.5C71 124.106 85.999 140 104.5 140C123.002 140 138 124.106 138 104.5C138 104.144 137.984 103.793 137.975 103.439C137.984 103.106 138 102.774 138 102.439V102.439ZM104.5 80.347C116.256 80.347 125.84 90.1734 126.35 102.495C125.839 114.103 116.254 123.356 104.5 123.356C92.7463 123.356 83.1609 114.102 82.6505 102.495C83.1609 90.1722 92.7463 80.347 104.5 80.347V80.347ZM104.5 135.205C86.7589 135.205 72.377 121.294 72.377 104.136C72.377 103.826 72.3916 103.515 72.4008 103.208C72.9102 118.965 87.0809 132.513 104.5 132.513C121.919 132.513 136.09 118.965 136.599 103.208C136.61 103.515 136.623 103.826 136.623 104.136C136.623 121.294 122.243 135.205 104.5 135.205H104.5ZM104.5 120.761C115.133 120.761 123.755 112.506 123.755 102.324C123.755 92.1419 115.134 83.8869 104.5 83.8869C93.866 83.8869 85.245 92.1419 85.245 102.324C85.245 112.506 93.866 120.761 104.5 120.761V120.761Z" fill="url(#paint1_linear_156_68)"/>
<defs>
<linearGradient id="paint0_linear_156_68" x1="3.60499" y1="217.146" x2="230.85" y2="31.1547" gradientUnits="userSpaceOnUse">
<stop stop-color="#177D83"/>
<stop offset="1" stop-color="#801887"/>
</linearGradient>
<linearGradient id="paint1_linear_156_68" x1="104.652" y1="69" x2="104.951" y2="152.113" gradientUnits="userSpaceOnUse">
<stop stop-color="#09A7BC"/>
<stop offset="1" stop-color="#D000E7"/>
</linearGradient>
</defs>
</svg>
