<svg width="210" height="210" viewBox="0 0 210 210" fill="none" xmlns="http://www.w3.org/2000/svg">
<path d="M52.7955 157.204C23.964 128.373 23.964 81.6272 52.7955 52.7955C81.6272 23.964 128.373 23.964 157.204 52.7955C186.036 81.6272 186.036 128.373 157.204 157.204C128.373 186.036 81.6272 186.036 52.7955 157.204Z" fill="#0E142B" stroke="url(#paint0_linear_156_68)" stroke-width="1.5"/>
<path d="M77.5 95.5013C78.75 95.5013 79.75 95.2513 80.75 94.7513L90 104.002V113.002H95V103.002C95 102.252 94.75 101.752 94.25 101.252L84.25 91.2511C84.75 90.2511 85 89.251 85 88.001C85 83.7508 81.75 80.5006 77.5 80.5006C73.25 80.5006 70 83.7508 70 88.001C70 92.2512 73.25 95.5013 77.5 95.5013Z" fill="url(#paint1_linear_156_68)"/>
<path d="M102.5 82.5007V113.002H107.5V82.5007C110.5 81.5006 112.5 78.7505 112.5 75.5004C112.5 71.2502 109.25 68 105 68C100.75 68 97.5 71.2502 97.5 75.5004C97.5 78.7505 99.5 81.5006 102.5 82.5007Z" fill="url(#paint2_linear_156_68)"/>
<path d="M120 104.002L129.25 94.7513C130.25 95.2513 131.25 95.5013 132.5 95.5013C136.75 95.5013 140 92.2512 140 88.001C140 83.7508 136.75 80.5006 132.5 80.5006C128.25 80.5006 125 83.7508 125 88.001C125 89.251 125.25 90.2511 125.75 91.2511L115.75 101.252C115.25 101.752 115 102.252 115 103.002V113.002H120V104.002Z" fill="url(#paint3_linear_156_68)"/>
<path d="M140 123.003C140 125.682 133.329 128.158 122.5 129.498C111.671 130.838 98.3293 130.838 87.5 129.498C76.6707 128.158 70 125.682 70 123.003C70 120.323 76.6707 117.847 87.5 116.507C98.3293 115.167 111.671 115.167 122.5 116.507C133.329 117.847 140 120.323 140 123.003Z" fill="url(#paint4_linear_156_68)"/>
<path d="M115 137.75C118.5 137.5 122 137.25 125 136.75V131.75C121.5 132.25 118 132.5 115 132.75V137.75Z" fill="url(#paint5_linear_156_68)"/>
<path d="M127.5 136.257C130.5 135.757 133 135.007 135 134.256V129.256C132.75 130.006 130.25 130.506 127.5 131.006V136.257Z" fill="url(#paint6_linear_156_68)"/>
<path d="M85 136.75C88 137.25 91.5 137.5 95 137.75V132.75C92 132.5 88.5 132.25 85 131.75V136.75Z" fill="url(#paint7_linear_156_68)"/>
<path d="M137.5 133.256C139 132.506 140 131.506 140 130.506V127.006C139.25 127.506 138.5 128.006 137.5 128.506V133.256Z" fill="url(#paint8_linear_156_68)"/>
<path d="M70 130.503C70 131.503 71 132.503 72.5 133.253V128.503C71.5 128.003 70.75 127.503 70 127.003V130.503Z" fill="url(#paint9_linear_156_68)"/>
<path d="M75 134.256C77 135.007 79.5 135.507 82.5 136.257V131.256C79.75 130.756 77.25 130.256 75 129.506V134.256Z" fill="url(#paint10_linear_156_68)"/>
<path d="M97.5 132.75V137.75C100 137.75 102.5 138 105 138C107.5 138 110 138 112.5 137.75V132.75C108.75 133 106 133 105 133C104 133 101.25 133 97.5 132.75Z" fill="url(#paint11_linear_156_68)"/>
<defs>
<linearGradient id="paint0_linear_156_68" x1="3.60499" y1="217.146" x2="230.85" y2="31.1547" gradientUnits="userSpaceOnUse">
<stop stop-color="#177D83"/>
<stop offset="1" stop-color="#801887"/>
</linearGradient>
<linearGradient id="paint1_linear_156_68" x1="105.158" y1="68" x2="105.437" y2="149.943" gradientUnits="userSpaceOnUse">
<stop stop-color="#09A7BC"/>
<stop offset="1" stop-color="#D000E7"/>
</linearGradient>
<linearGradient id="paint2_linear_156_68" x1="105.158" y1="68" x2="105.437" y2="149.943" gradientUnits="userSpaceOnUse">
<stop stop-color="#09A7BC"/>
<stop offset="1" stop-color="#D000E7"/>
</linearGradient>
<linearGradient id="paint3_linear_156_68" x1="105.158" y1="68" x2="105.437" y2="149.943" gradientUnits="userSpaceOnUse">
<stop stop-color="#09A7BC"/>
<stop offset="1" stop-color="#D000E7"/>
</linearGradient>
<linearGradient id="paint4_linear_156_68" x1="105.158" y1="68" x2="105.437" y2="149.943" gradientUnits="userSpaceOnUse">
<stop stop-color="#09A7BC"/>
<stop offset="1" stop-color="#D000E7"/>
</linearGradient>
<linearGradient id="paint5_linear_156_68" x1="105.158" y1="68" x2="105.437" y2="149.943" gradientUnits="userSpaceOnUse">
<stop stop-color="#09A7BC"/>
<stop offset="1" stop-color="#D000E7"/>
</linearGradient>
<linearGradient id="paint6_linear_156_68" x1="105.158" y1="68" x2="105.437" y2="149.943" gradientUnits="userSpaceOnUse">
<stop stop-color="#09A7BC"/>
<stop offset="1" stop-color="#D000E7"/>
</linearGradient>
<linearGradient id="paint7_linear_156_68" x1="105.158" y1="68" x2="105.437" y2="149.943" gradientUnits="userSpaceOnUse">
<stop stop-color="#09A7BC"/>
<stop offset="1" stop-color="#D000E7"/>
</linearGradient>
<linearGradient id="paint8_linear_156_68" x1="105.158" y1="68" x2="105.437" y2="149.943" gradientUnits="userSpaceOnUse">
<stop stop-color="#09A7BC"/>
<stop offset="1" stop-color="#D000E7"/>
</linearGradient>
<linearGradient id="paint9_linear_156_68" x1="105.158" y1="68" x2="105.437" y2="149.943" gradientUnits="userSpaceOnUse">
<stop stop-color="#09A7BC"/>
<stop offset="1" stop-color="#D000E7"/>
</linearGradient>
<linearGradient id="paint10_linear_156_68" x1="105.158" y1="68" x2="105.437" y2="149.943" gradientUnits="userSpaceOnUse">
<stop stop-color="#09A7BC"/>
<stop offset="1" stop-color="#D000E7"/>
</linearGradient>
<linearGradient id="paint11_linear_156_68" x1="105.158" y1="68" x2="105.437" y2="149.943" gradientUnits="userSpaceOnUse">
<stop stop-color="#09A7BC"/>
<stop offset="1" stop-color="#D000E7"/>
</linearGradient>
</defs>
</svg>
