<svg width="210" height="210" viewBox="0 0 210 210" fill="none" xmlns="http://www.w3.org/2000/svg">
<path d="M52.7955 157.204C23.964 128.373 23.964 81.6272 52.7955 52.7955C81.6272 23.964 128.373 23.964 157.204 52.7955C186.036 81.6272 186.036 128.373 157.204 157.204C128.373 186.036 81.6272 186.036 52.7955 157.204Z" fill="#0E142B" stroke="url(#paint0_linear_154_37)" stroke-width="1.5"/>
<path d="M136.864 82.681L111.416 78.6859L112.05 82.6053L132.502 85.8316C133.169 85.9329 133.766 86.295 134.162 86.8374C134.557 87.3796 134.718 88.0568 134.607 88.7176L128.268 128.542C128.175 129.135 127.873 129.675 127.415 130.066C126.957 130.457 126.373 130.672 125.77 130.672C125.634 130.672 125.498 130.659 125.364 130.634L116.184 129.197C115.641 129.499 115.049 129.704 114.434 129.802L105.076 131.277L128.521 134.969C129.187 135.073 129.867 134.91 130.412 134.515C130.956 134.12 131.32 133.527 131.425 132.865L138.969 85.5668C139.074 84.9068 138.912 84.2323 138.517 83.6912C138.122 83.15 137.528 82.7868 136.864 82.681Z" fill="url(#paint1_linear_154_37)"/>
<path d="M132.11 88.3142L125.757 128.151L118.238 126.967C118.661 126.053 118.802 125.036 118.644 124.043L112.469 85.2267L132.11 88.3142Z" fill="url(#paint2_linear_154_37)"/>
<path d="M88.8044 104.493L94.8018 111.349L98.3721 102.986L92.3747 96.1305L88.8044 104.493Z" fill="url(#paint3_linear_154_37)"/>
<path d="M116.145 124.433C109.784 84.6436 109.042 79.7713 108.601 77.1351C108.496 76.4732 108.132 75.8796 107.588 75.485C107.043 75.0901 106.363 74.9268 105.697 75.0305L73.1361 80.1597C72.4723 80.2655 71.8777 80.6289 71.4831 81.17C71.0884 81.7111 70.926 82.3857 71.0314 83.0457L78.5755 130.344C78.6796 131.006 79.0438 131.599 79.5885 131.994C80.1332 132.389 80.8131 132.552 81.479 132.448C116.785 126.886 109.644 128.007 114.04 127.319C114.703 127.211 115.296 126.847 115.69 126.307C116.084 125.766 116.248 125.093 116.145 124.433ZM100.864 103.604L96.5807 113.633C96.3591 114.155 95.8809 114.526 95.3175 114.612C95.2319 114.625 95.1455 114.632 95.0589 114.631C94.5823 114.632 94.1293 114.426 93.8181 114.068L86.629 105.849C86.3971 105.582 86.2447 105.255 86.1887 104.906C86.1327 104.558 86.1755 104.201 86.312 103.875L90.5951 93.8457C90.8175 93.3253 91.2943 92.9551 91.8564 92.8674C92.4185 92.7795 92.9864 92.9858 93.3589 93.4135L100.547 101.63C100.779 101.897 100.931 102.223 100.987 102.572C101.043 102.921 101 103.278 100.864 103.604Z" fill="url(#paint4_linear_154_37)"/>
<defs>
<linearGradient id="paint0_linear_154_37" x1="3.60499" y1="217.146" x2="230.85" y2="31.1547" gradientUnits="userSpaceOnUse">
<stop stop-color="#177D83"/>
<stop offset="1" stop-color="#801887"/>
</linearGradient>
<linearGradient id="paint1_linear_154_37" x1="105.154" y1="75" x2="105.365" y2="145.237" gradientUnits="userSpaceOnUse">
<stop stop-color="#09A7BC"/>
<stop offset="1" stop-color="#D000E7"/>
</linearGradient>
<linearGradient id="paint2_linear_154_37" x1="105.154" y1="75" x2="105.365" y2="145.237" gradientUnits="userSpaceOnUse">
<stop stop-color="#09A7BC"/>
<stop offset="1" stop-color="#D000E7"/>
</linearGradient>
<linearGradient id="paint3_linear_154_37" x1="105.154" y1="75" x2="105.365" y2="145.237" gradientUnits="userSpaceOnUse">
<stop stop-color="#09A7BC"/>
<stop offset="1" stop-color="#D000E7"/>
</linearGradient>
<linearGradient id="paint4_linear_154_37" x1="105.154" y1="75" x2="105.365" y2="145.237" gradientUnits="userSpaceOnUse">
<stop stop-color="#09A7BC"/>
<stop offset="1" stop-color="#D000E7"/>
</linearGradient>
</defs>
</svg>
