<svg width="210" height="210" viewBox="0 0 210 210" fill="none" xmlns="http://www.w3.org/2000/svg">
<path d="M52.7955 157.204C23.964 128.373 23.964 81.6272 52.7955 52.7955C81.6272 23.964 128.373 23.964 157.204 52.7955C186.036 81.6272 186.036 128.373 157.204 157.204C128.373 186.036 81.6272 186.036 52.7955 157.204Z" fill="#0E142B" stroke="url(#paint0_linear_155_62)" stroke-width="1.5"/>
<path d="M72.9158 119.274L62.7159 114.054C62.358 113.854 62 114.155 62 114.556V130.215C62 130.415 62.0894 130.616 62.2685 130.717L72.4685 135.936C72.8264 136.137 73.1844 135.836 73.1844 135.434L73.1841 119.776C73.1841 119.575 73.095 119.374 72.9158 119.274Z" fill="url(#paint1_linear_155_62)"/>
<path d="M84.6368 110.139L76.9421 106.225L76.9418 92.2722H86.1576C86.0682 91.4691 86.0682 90.6663 86.0682 89.8631C86.0682 89.06 86.0682 88.2572 86.1576 87.454H74.7945C73.6312 87.454 72.6471 88.558 72.6471 89.8631V106.225L64.9524 110.139C64.5944 110.34 64.5944 110.942 64.9524 111.143L74.526 116.062C74.6154 116.162 74.7945 116.162 74.9734 116.062L84.547 111.143C84.9943 110.942 84.9945 110.34 84.6368 110.139Z" fill="url(#paint2_linear_155_62)"/>
<path d="M146.284 114.054L136.084 119.273C135.905 119.374 135.816 119.575 135.816 119.775V135.434C135.816 135.836 136.174 136.137 136.532 135.936L146.731 130.717C146.91 130.616 147 130.415 147 130.215L147 114.556C147 114.154 146.642 113.853 146.284 114.054Z" fill="url(#paint3_linear_155_62)"/>
<path d="M143.957 110.139L136.263 106.225V89.8632C136.263 88.5581 135.279 87.4541 134.115 87.4541H122.752C122.842 88.2572 122.842 89.06 122.842 89.8632C122.842 90.6663 122.842 91.4691 122.752 92.2723H131.968V106.225L124.363 110.139C124.005 110.34 124.005 110.943 124.363 111.143L133.936 116.062C134.026 116.162 134.205 116.162 134.384 116.062L143.957 111.143C144.315 110.942 144.315 110.34 143.957 110.139Z" fill="url(#paint4_linear_155_62)"/>
<path d="M132.237 119.274L122.037 114.054C121.679 113.854 121.321 114.155 121.321 114.556V119.274H87.6788V114.556C87.6788 114.155 87.3208 113.854 86.9629 114.054L76.7629 119.274C76.5841 119.374 76.4944 119.575 76.4944 119.776V135.434C76.4944 135.836 76.8524 136.137 77.2103 135.936L87.4103 130.717C87.5891 130.616 87.6788 130.415 87.6788 130.215V123.992H121.41V130.215C121.41 130.415 121.5 130.616 121.679 130.717L131.879 135.936C132.237 136.137 132.595 135.836 132.595 135.434L132.594 119.776C132.505 119.575 132.415 119.374 132.237 119.274Z" fill="url(#paint5_linear_155_62)"/>
<path d="M104.5 106.727C112.821 106.727 119.531 99.1983 119.531 89.8633C119.531 80.5282 112.821 73 104.5 73C96.1789 73 89.4684 80.5282 89.4684 89.8633C89.4684 99.1983 96.1789 106.727 104.5 106.727ZM96.8052 88.6588C97.6105 87.7553 98.9526 87.7553 99.8473 88.6588L102.353 91.4695L108.974 84.0415C109.779 83.138 111.121 83.138 112.016 84.0415C112.821 84.945 112.821 86.4506 112.016 87.4544L103.874 96.5887C103.516 96.9903 102.89 97.2912 102.353 97.2912C101.816 97.2912 101.279 96.9899 100.832 96.5887L96.8058 92.0717C95.9999 91.068 95.9998 89.5622 96.8052 88.6588Z" fill="url(#paint6_linear_155_62)"/>
<defs>
<linearGradient id="paint0_linear_155_62" x1="3.60499" y1="217.146" x2="230.85" y2="31.1547" gradientUnits="userSpaceOnUse">
<stop stop-color="#177D83"/>
<stop offset="1" stop-color="#801887"/>
</linearGradient>
<linearGradient id="paint1_linear_155_62" x1="104.692" y1="73" x2="104.878" y2="146.749" gradientUnits="userSpaceOnUse">
<stop stop-color="#09A7BC"/>
<stop offset="1" stop-color="#D000E7"/>
</linearGradient>
<linearGradient id="paint2_linear_155_62" x1="104.692" y1="73" x2="104.878" y2="146.749" gradientUnits="userSpaceOnUse">
<stop stop-color="#09A7BC"/>
<stop offset="1" stop-color="#D000E7"/>
</linearGradient>
<linearGradient id="paint3_linear_155_62" x1="104.692" y1="73" x2="104.878" y2="146.749" gradientUnits="userSpaceOnUse">
<stop stop-color="#09A7BC"/>
<stop offset="1" stop-color="#D000E7"/>
</linearGradient>
<linearGradient id="paint4_linear_155_62" x1="104.692" y1="73" x2="104.878" y2="146.749" gradientUnits="userSpaceOnUse">
<stop stop-color="#09A7BC"/>
<stop offset="1" stop-color="#D000E7"/>
</linearGradient>
<linearGradient id="paint5_linear_155_62" x1="104.692" y1="73" x2="104.878" y2="146.749" gradientUnits="userSpaceOnUse">
<stop stop-color="#09A7BC"/>
<stop offset="1" stop-color="#D000E7"/>
</linearGradient>
<linearGradient id="paint6_linear_155_62" x1="104.692" y1="73" x2="104.878" y2="146.749" gradientUnits="userSpaceOnUse">
<stop stop-color="#09A7BC"/>
<stop offset="1" stop-color="#D000E7"/>
</linearGradient>
</defs>
</svg>
