<svg width="210" height="210" viewBox="0 0 210 210" fill="none" xmlns="http://www.w3.org/2000/svg">
<path d="M52.7955 157.204C23.964 128.373 23.964 81.6272 52.7955 52.7955C81.6272 23.964 128.373 23.964 157.204 52.7955C186.036 81.6272 186.036 128.373 157.204 157.204C128.373 186.036 81.6272 186.036 52.7955 157.204Z" fill="#0E142B" stroke="url(#paint0_linear_157_109)" stroke-width="1.5"/>
<path d="M75.7236 119.829C78.9216 119.825 82.0317 118.775 84.5817 116.837C87.1322 114.899 88.9836 112.179 89.8558 109.089H99.3219L109.376 120.447C106.537 124.298 105.734 129.294 107.225 133.846C108.716 138.398 112.315 141.941 116.877 143.348C121.438 144.756 126.397 143.853 130.176 140.928C133.956 138.001 136.087 133.416 135.891 128.627C135.695 123.839 133.199 119.444 129.193 116.838C125.187 114.232 120.172 113.741 115.74 115.518L106.475 105.061L115.727 94.6028C120.179 96.3954 125.22 95.9064 129.248 93.2909C133.276 90.6759 135.789 86.2604 135.987 81.4481C136.186 76.6363 134.045 72.0273 130.247 69.0863C126.448 66.1457 121.464 65.2398 116.88 66.6565C112.296 68.0728 108.682 71.6362 107.188 76.2124C105.693 80.7887 106.505 85.8089 109.364 89.6762L99.3226 101.033H89.8565C88.8564 97.4907 86.5741 94.4509 83.457 92.5102C80.3399 90.5699 76.6135 89.869 73.0082 90.5446C69.4033 91.2202 66.1795 93.2242 63.9695 96.1631C61.7598 99.102 60.7231 102.764 61.0635 106.43C61.4034 110.097 63.0955 113.503 65.8078 115.982C68.5202 118.461 72.0568 119.832 75.7244 119.828L75.7236 119.829ZM121.182 122.514C122.955 122.514 124.655 123.221 125.909 124.48C127.163 125.739 127.867 127.446 127.867 129.226C127.867 131.007 127.163 132.714 125.909 133.973C124.655 135.232 122.955 135.939 121.182 135.939C119.409 135.939 117.708 135.232 116.455 133.973C115.201 132.714 114.497 131.007 114.497 129.226C114.497 127.446 115.201 125.739 116.455 124.48C117.708 123.221 119.409 122.514 121.182 122.514ZM121.182 74.1854C122.955 74.1854 124.655 74.8925 125.909 76.1515C127.163 77.41 127.867 79.1174 127.867 80.8977C127.867 82.6781 127.163 84.3855 125.909 85.644C124.655 86.903 122.955 87.6101 121.182 87.6101C119.409 87.6101 117.708 86.903 116.455 85.644C115.201 84.3855 114.497 82.6781 114.497 80.8977C114.497 79.1174 115.201 77.41 116.455 76.1515C117.708 74.8924 119.409 74.1854 121.182 74.1854ZM75.7236 98.3498C77.4967 98.3498 79.1972 99.0568 80.4506 100.316C81.7045 101.574 82.4087 103.282 82.4087 105.062C82.4087 106.842 81.7045 108.55 80.4506 109.808C79.1972 111.067 77.4967 111.774 75.7236 111.774C73.9505 111.774 72.2501 111.067 70.9967 109.808C69.7428 108.55 69.0386 106.842 69.0386 105.062C69.0386 103.282 69.7428 101.574 70.9967 100.316C72.2501 99.0568 73.9505 98.3498 75.7236 98.3498Z" fill="url(#paint1_linear_157_109)"/>
<defs>
<linearGradient id="paint0_linear_157_109" x1="3.60499" y1="217.146" x2="230.85" y2="31.1547" gradientUnits="userSpaceOnUse">
<stop stop-color="#177D83"/>
<stop offset="1" stop-color="#801887"/>
</linearGradient>
<linearGradient id="paint1_linear_157_109" x1="98.6697" y1="66" x2="98.9929" y2="157.308" gradientUnits="userSpaceOnUse">
<stop stop-color="#09A7BC"/>
<stop offset="1" stop-color="#D000E7"/>
</linearGradient>
</defs>
</svg>
