<svg width="210" height="210" viewBox="0 0 210 210" fill="none" xmlns="http://www.w3.org/2000/svg">
<path d="M52.7955 157.204C23.964 128.373 23.964 81.6272 52.7955 52.7955C81.6272 23.964 128.373 23.964 157.204 52.7955C186.036 81.6272 186.036 128.373 157.204 157.204C128.373 186.036 81.6272 186.036 52.7955 157.204Z" fill="#0E142B" stroke="url(#paint0_linear_157_85)" stroke-width="1.5"/>
<path d="M123.846 121.202C121.128 123.164 117.837 124.265 114.427 124.265C105.532 124.265 98.3072 117.015 98.3072 108.089C98.3072 99.1632 105.532 91.9131 114.427 91.9131H126.923V80.4516C126.923 75.2351 122.702 71 117.504 71H93.419C88.2205 71 84 75.2354 84 80.4516V128.548C84 133.765 88.2208 138 93.419 138H117.504C122.702 138 126.923 133.765 126.923 128.548V122.255C126.327 121.944 125.778 121.585 125.23 121.202L123.846 121.202ZM105.413 78.178H105.437C106.748 78.178 107.821 79.2548 107.821 80.5709C107.821 81.887 106.748 82.9638 105.437 82.9638C104.125 82.9638 103.052 81.887 103.052 80.5709C103.052 79.2548 104.101 78.178 105.413 78.178Z" fill="url(#paint1_linear_157_85)"/>
<path d="M134.649 96.6989H114.427C108.156 96.6989 103.076 101.82 103.076 108.089C103.076 114.358 108.156 119.479 114.427 119.479C117.289 119.479 120.055 118.378 122.154 116.416H126.923C129.021 118.378 131.788 119.479 134.649 119.479C140.921 119.479 146 114.358 146 108.089C146 101.82 140.921 96.6989 134.649 96.6989ZM135.865 110.482C134.554 110.482 133.457 109.405 133.457 108.089C133.457 106.773 134.53 105.696 135.841 105.696H135.865C137.177 105.696 138.25 106.773 138.25 108.089C138.25 109.405 137.177 110.482 135.865 110.482ZM116.693 110.386C116.478 111.463 115.548 112.277 114.427 112.277C113.283 112.277 112.377 111.463 112.138 110.386C111.065 110.147 110.254 109.238 110.254 108.089C110.254 106.94 111.065 106.031 112.138 105.792C112.377 104.715 113.283 103.901 114.427 103.901C115.548 103.901 116.478 104.715 116.693 105.792C117.766 106.031 118.6 106.94 118.6 108.089C118.6 109.238 117.766 110.147 116.693 110.386Z" fill="url(#paint2_linear_157_85)"/>
<defs>
<linearGradient id="paint0_linear_157_85" x1="3.60499" y1="217.146" x2="230.85" y2="31.1547" gradientUnits="userSpaceOnUse">
<stop stop-color="#177D83"/>
<stop offset="1" stop-color="#801887"/>
</linearGradient>
<linearGradient id="paint1_linear_157_85" x1="115.14" y1="71" x2="115.429" y2="149.431" gradientUnits="userSpaceOnUse">
<stop stop-color="#09A7BC"/>
<stop offset="1" stop-color="#D000E7"/>
</linearGradient>
<linearGradient id="paint2_linear_157_85" x1="115.14" y1="71" x2="115.429" y2="149.431" gradientUnits="userSpaceOnUse">
<stop stop-color="#09A7BC"/>
<stop offset="1" stop-color="#D000E7"/>
</linearGradient>
</defs>
</svg>
