<svg width="210" height="210" viewBox="0 0 210 210" fill="none" xmlns="http://www.w3.org/2000/svg">
<path d="M52.7955 157.204C23.964 128.373 23.964 81.6272 52.7955 52.7955C81.6272 23.964 128.373 23.964 157.204 52.7955C186.036 81.6272 186.036 128.373 157.204 157.204C128.373 186.036 81.6272 186.036 52.7955 157.204Z" fill="#0E142B" stroke="url(#paint0_linear_157_112)" stroke-width="1.5"/>
<path d="M138.05 129.988L129.636 115.175C129.695 115.093 129.742 115.023 129.8 114.941C133.304 109.82 135.156 103.843 135.156 97.6438C135.156 80.7569 121.398 66.9994 104.499 66.9994C87.5895 66.9994 73.8432 80.7569 73.8432 97.6556C73.8432 103.867 75.6948 109.843 79.1987 114.941C79.2573 115.023 79.3042 115.093 79.3628 115.175L70.949 129.988C70.6326 130.538 70.6444 131.218 70.9842 131.769C71.3123 132.296 71.8748 132.601 72.5428 132.601C72.5545 132.601 72.5545 132.601 82.5978 132.097L87.0627 141.027C87.344 141.613 87.9299 141.988 88.5978 141.999H88.633C89.2541 141.999 89.84 141.66 90.1564 141.121L97.9139 127.586C100.047 128.066 102.262 128.3 104.511 128.3C106.761 128.3 108.976 128.054 111.109 127.586L118.866 141.109C119.148 141.648 119.745 142 120.413 142H120.425C121.07 141.988 121.644 141.613 121.948 141.039L126.413 132.109L136.538 132.613C137.136 132.613 137.698 132.297 138.038 131.769C138.355 131.218 138.366 130.538 138.05 129.988ZM124.304 111.718L124.269 111.777L124.046 112.046L123.835 112.316L123.765 112.433C120.436 116.769 115.714 119.874 110.44 121.21C108.518 121.703 106.514 121.949 104.499 121.949C102.471 121.949 100.468 121.703 98.534 121.21C93.073 119.828 88.2334 116.558 84.9052 112.011L84.7412 111.788C81.7646 107.64 80.1943 102.753 80.1943 97.656C80.1943 84.2497 91.093 73.351 104.499 73.351C117.906 73.351 128.804 84.261 128.804 97.656C128.804 102.718 127.245 107.581 124.304 111.718Z" fill="url(#paint1_linear_157_112)"/>
<path d="M117.695 92.91L109.726 91.7499L106.164 84.5311C105.847 83.8983 105.214 83.4881 104.5 83.4881C103.832 83.4647 103.152 83.8866 102.836 84.5311L99.273 91.7499L91.3043 92.91C90.6012 93.0038 90.0269 93.496 89.8043 94.1639C89.5816 94.8436 89.7691 95.5701 90.273 96.074L96.0387 101.687L94.6793 109.621C94.5621 110.324 94.8316 111.016 95.4175 111.426C95.7457 111.672 96.1207 111.789 96.4957 111.789C96.7886 111.789 97.0816 111.707 97.3629 111.566L104.488 107.816L111.613 111.566C112.234 111.894 112.996 111.848 113.558 111.426C114.144 111.016 114.425 110.324 114.308 109.621L112.937 101.687L118.703 96.074C119.207 95.5701 119.394 94.8435 119.171 94.1639C118.972 93.4959 118.386 93.0155 117.695 92.91Z" fill="url(#paint2_linear_157_112)"/>
<defs>
<linearGradient id="paint0_linear_157_112" x1="3.60499" y1="217.146" x2="230.85" y2="31.1547" gradientUnits="userSpaceOnUse">
<stop stop-color="#177D83"/>
<stop offset="1" stop-color="#801887"/>
</linearGradient>
<linearGradient id="paint1_linear_157_112" x1="104.654" y1="66.9994" x2="104.985" y2="154.796" gradientUnits="userSpaceOnUse">
<stop stop-color="#09A7BC"/>
<stop offset="1" stop-color="#D000E7"/>
</linearGradient>
<linearGradient id="paint2_linear_157_112" x1="104.654" y1="66.9994" x2="104.985" y2="154.796" gradientUnits="userSpaceOnUse">
<stop stop-color="#09A7BC"/>
<stop offset="1" stop-color="#D000E7"/>
</linearGradient>
</defs>
</svg>
